<?xml version="1.0" encoding="UTF-8"?>
<svg version="1.1" xmlns="http://www.w3.org/2000/svg" width="1000" height="583">
<path d="M0 0 C3.8211165 3.15585259 7.599507 6.39131355 11 10 C11 10.66 11 11.32 11 12 C11.57105469 12.226875 12.14210938 12.45375 12.73046875 12.6875 C22.89644474 18.56661864 30.66095686 33.74164981 36 44 C36.70769531 45.32064453 36.70769531 45.32064453 37.4296875 46.66796875 C48.89839498 68.6843217 54.19082255 92.43107967 54.25 117.1875 C54.25167175 117.84630157 54.25334351 118.50510315 54.25506592 119.18386841 C54.2570178 132.07545682 53.74090895 145.30819142 49.8359375 157.69140625 C48.90911843 161.35970415 48.9082005 163.39167608 50 167 C51.74004787 169.65395634 51.74004787 169.65395634 53.9375 172.0625 C56.73575077 175.27718736 58.6210503 177.94978649 60 182 C60.66 182 61.32 182 62 182 C63.33984375 183.66015625 63.33984375 183.66015625 64.9375 186.0625 C67.94362831 190.47852734 71.02309806 194.82202061 74.1875 199.125 C74.65124023 199.75639893 75.11498047 200.38779785 75.59277344 201.03833008 C79.55563605 206.42101668 83.56133555 211.77132739 87.58862305 217.10595703 C91.79627535 222.69008215 95.88510002 228.34201253 100 234 C100 208.92 100 183.84 100 158 C120.79 158 141.58 158 163 158 C163 218.06 163 278.12 163 340 C145.51 340 128.02 340 110 340 C106.7 335.38 103.4 330.76 100 326 C95.74942954 320.12421143 91.49749072 314.27205594 87.03125 308.55859375 C86 307 86 307 86 305 C85.34 305 84.68 305 84 305 C82.34375 302.98828125 82.34375 302.98828125 80.5 300.3125 C79.8915625 299.44238281 79.283125 298.57226562 78.65625 297.67578125 C77.10269515 295.1659108 75.99834825 292.77041639 75 290 C74.34 290 73.68 290 73 290 C71.34375 287.98828125 71.34375 287.98828125 69.5 285.3125 C68.8915625 284.44238281 68.283125 283.57226562 67.65625 282.67578125 C66.10269515 280.1659108 64.99834825 277.77041639 64 275 C63.34 275 62.68 275 62 275 C58 269.58823529 58 269.58823529 58 267 C57.34 267 56.68 267 56 267 C55.67 266.34 55.34 265.68 55 265 C54.67 289.75 54.34 314.5 54 340 C33.21 340 12.42 340 -9 340 C-9.33 316.9 -9.66 293.8 -10 270 C-17.55829789 279.76868962 -17.55829789 279.76868962 -24.84375 289.70703125 C-25.41609375 290.34705078 -25.41609375 290.34705078 -26 291 C-26.66 291 -27.32 291 -28 291 C-28.268125 291.804375 -28.53625 292.60875 -28.8125 293.4375 C-29.204375 294.283125 -29.59625 295.12875 -30 296 C-30.99 296.33 -31.98 296.66 -33 297 C-33.33 311.19 -33.66 325.38 -34 340 C-46.21 340.33 -58.42 340.66 -71 341 C-71.66 342.32 -72.32 343.64 -73 345 C-74.41660864 346.68188092 -75.87956086 348.32530731 -77.375 349.9375 C-80.39067604 353.20027993 -83.23484675 356.52314064 -86 360 C-87.6436814 361.68933922 -89.3142876 363.35259924 -91 365 C-92.37806667 366.35104575 -93.7528585 367.70543697 -95.125 369.0625 C-95.78757812 369.71347656 -96.45015625 370.36445313 -97.1328125 371.03515625 C-99.05379942 372.96776649 -99.05379942 372.96776649 -100.6171875 375.24609375 C-101.07351563 375.82488281 -101.52984375 376.40367187 -102 377 C-102.66 377 -103.32 377 -104 377 C-104.24363281 377.57234375 -104.48726562 378.1446875 -104.73828125 378.734375 C-106.22517298 381.40433538 -107.98083908 383.13829007 -110.1875 385.25 C-114.94716063 389.90287337 -119.29358937 394.80151471 -123.58984375 399.87890625 C-131.60605444 409.32294073 -131.60605444 409.32294073 -135.1875 411.0625 C-137.14383514 411.84669994 -137.14383514 411.84669994 -137.875 413.78125 C-139.2011027 416.39661922 -140.84459288 418.26640553 -142.8125 420.4375 C-143.52664063 421.22640625 -144.24078125 422.0153125 -144.9765625 422.828125 C-147.25983351 425.27889466 -149.63169035 427.63169035 -152 430 C-152.825 430.99 -153.65 431.98 -154.5 433 C-156.87353344 435.84824012 -159.27004182 438.49138978 -162 441 C-162.66 441 -163.32 441 -164 441 C-164.33 441.99 -164.66 442.98 -165 444 C-165.66 444 -166.32 444 -167 444 C-167.2475 444.61875 -167.495 445.2375 -167.75 445.875 C-169.20628639 448.35068687 -170.37812506 448.95125002 -173 450 C-173 450.66 -173 451.32 -173 452 C-173.66 452 -174.32 452 -175 452 C-175.2475 452.61875 -175.495 453.2375 -175.75 453.875 C-177.23740369 456.40358627 -178.43678009 456.71839004 -181 458 C-181.68268138 459.32520503 -182.3507041 460.65812182 -183 462 C-183.99 462.33 -184.98 462.66 -186 463 C-186.70294753 464.31456723 -187.36596944 465.65084194 -188 467 C-191.85714125 471.47219891 -196.43320153 475.27260209 -200.8984375 479.1171875 C-203.18665111 481.16722274 -205.34260582 483.31295092 -207.5 485.5 C-218.27008929 496.38169643 -218.27008929 496.38169643 -224 499 C-224 499.66 -224 500.32 -224 501 C-227.46153846 504 -227.46153846 504 -230 504 C-230.33 504.99 -230.66 505.98 -231 507 C-232.53564453 508.36376953 -232.53564453 508.36376953 -234.5078125 509.7578125 C-237.52380009 511.93400703 -240.49836333 514.14027802 -243.4296875 516.4296875 C-244.161875 516.996875 -244.8940625 517.5640625 -245.6484375 518.1484375 C-247.15880228 519.31963265 -248.6665352 520.49422822 -250.171875 521.671875 C-250.89632813 522.23132813 -251.62078125 522.79078125 -252.3671875 523.3671875 C-253.34341064 524.12684814 -253.34341064 524.12684814 -254.33935547 524.90185547 C-256 526 -256 526 -258 526 C-258 526.66 -258 527.32 -258 528 C-259.80078125 529.26171875 -259.80078125 529.26171875 -262.3125 530.6875 C-266.03569499 532.83891141 -269.66081873 535.06960032 -273.25 537.4375 C-287.80682947 546.70650502 -304.07390644 553.52990117 -321 557 C-321.85078125 557.185625 -322.7015625 557.37125 -323.578125 557.5625 C-328.7573466 558.22468358 -333.90897683 558.18440994 -339.125 558.1875 C-340.18976563 558.19974609 -341.25453125 558.21199219 -342.3515625 558.22460938 C-359.69456931 558.25618038 -374.57958458 553.66216387 -389 544 C-389.80695313 543.46632813 -390.61390625 542.93265625 -391.4453125 542.3828125 C-400.16749038 536.44954416 -408.66601123 530.13169304 -415.3671875 521.921875 C-417.05525614 519.88070916 -417.05525614 519.88070916 -419.3203125 517.69140625 C-422.36093399 514.63748759 -425.19267114 511.45481424 -428 508.1875 C-428.53036865 507.57092529 -429.0607373 506.95435059 -429.60717773 506.3190918 C-433.19697669 502.08772122 -436.19518717 497.79532516 -439 493 C-439.44085938 492.57332031 -439.88171875 492.14664063 -440.3359375 491.70703125 C-442.78614888 489.1935515 -444.63341494 486.29214384 -446.5625 483.375 C-446.99941162 482.7162085 -447.43632324 482.05741699 -447.88647461 481.37866211 C-452.4470425 474.4287976 -456.66676339 467.29268343 -460.80175781 460.08349609 C-461.93797293 458.10785229 -463.08861963 456.14132651 -464.2421875 454.17578125 C-473.774586 437.77074561 -481.52599129 420.41876409 -489 403 C-489.70514388 401.41524366 -490.41296592 399.83167254 -491.125 398.25 C-495.25108638 388.9447257 -498.97750843 379.52558385 -502.5625 370 C-502.93850342 369.00347412 -503.31450684 368.00694824 -503.7019043 366.98022461 C-510.67785043 348.3262543 -510.67785043 348.3262543 -512 341 C-512.73863281 340.85304688 -513.47726562 340.70609375 -514.23828125 340.5546875 C-524.84852935 338.20883849 -535.02240346 333.58900301 -543 326 C-543 325.34 -543 324.68 -543 324 C-543.598125 323.75507813 -544.19625 323.51015625 -544.8125 323.2578125 C-547.3938098 321.77355936 -548.40015133 320.37041613 -550 317.875 C-550.474375 317.15054687 -550.94875 316.42609375 -551.4375 315.6796875 C-555.20158151 309.22428772 -557.73182956 303.27324978 -559.25 295.9375 C-559.42273438 295.17373047 -559.59546875 294.40996094 -559.7734375 293.62304688 C-560.81174967 288.80643207 -561 285.12861441 -561 280 C-551.1 280 -541.2 280 -531 280 C-531.61875 277.339375 -532.2375 274.67875 -532.875 271.9375 C-533.16093018 270.70181274 -533.16093018 270.70181274 -533.45263672 269.44116211 C-533.78700776 268.01212805 -534.12852416 266.58475587 -534.4753418 265.15869141 C-534.96165757 263.15775885 -535.42517697 261.15132305 -535.88671875 259.14453125 C-537.09949819 255.71896126 -537.94308738 254.6905132 -540.9375 252.75 C-543.55781532 251.00638831 -545.93942049 249.40293284 -548 247 C-548 246.34 -548 245.68 -548 245 C-548.66 245 -549.32 245 -550 245 C-551.13829431 242.86037192 -552.26034158 240.71441001 -553.375 238.5625 C-553.69210937 237.97017578 -554.00921875 237.37785156 -554.3359375 236.76757812 C-558.40004701 228.85103148 -559.37147083 221.00492177 -559.3125 212.1875 C-559.30758545 211.31311279 -559.3026709 210.43872559 -559.29760742 209.5378418 C-559.14013284 200.8072897 -558.09421358 193.08284306 -553.3125 185.625 C-549.80782327 179.71020023 -550.59545923 173.64249766 -551 167 C-551.17253528 163.79196604 -551.33704522 160.5835339 -551.5 157.375 C-551.54503662 156.49924316 -551.59007324 155.62348633 -551.63647461 154.72119141 C-553.56223642 114.65827867 -553.46421771 66.83779894 -527 34 C-526.39929688 33.19433594 -525.79859375 32.38867188 -525.1796875 31.55859375 C-522.76489825 28.72402931 -520.23468368 26.66054808 -517.25 24.4375 C-516.26515625 23.69371094 -515.2803125 22.94992188 -514.265625 22.18359375 C-497.25079118 10.80645008 -476.7650504 11.15791216 -457 12 C-455.75742432 12.05003174 -455.75742432 12.05003174 -454.48974609 12.10107422 C-431.44818505 13.24553888 -408.21973314 19.15338023 -385.75 24.0625 C-338.45966806 34.36680719 -289.51622472 42.7378515 -242 29 C-240.64992815 28.62562141 -239.29966252 28.25194104 -237.94921875 27.87890625 C-212.20509036 20.64967994 -187.18087979 10.66432005 -162.68359375 0.0234375 C-108.60093424 -23.44701494 -50.88103499 -40.2537968 0 0 Z M-129.42578125 0.94140625 C-132.87660009 2.3604835 -136.37641062 3.64229831 -139.875 4.9375 C-147.29504834 7.70176436 -154.59658533 10.69347615 -161.87939453 13.80224609 C-172.04905796 18.13761836 -182.26051092 22.36902625 -192.51153564 26.50827026 C-193.81964842 27.0373334 -195.1269264 27.56846608 -196.43328857 28.10183716 C-203.40472785 30.94514054 -210.27376404 33.49331478 -217.57421875 35.34448242 C-219.7821448 35.94112911 -221.84492804 36.65787864 -223.96875 37.5 C-229.01844508 39.47061271 -234.24291059 40.70983221 -239.5 42 C-240.55791748 42.26127686 -241.61583496 42.52255371 -242.70581055 42.79174805 C-259.81778974 46.96016739 -276.27538091 49.18719245 -293.90454102 49.18530273 C-296.16637281 49.18747967 -298.42770763 49.20567749 -300.68945312 49.22460938 C-310.63550969 49.26353653 -320.1561722 48.42503895 -330 47 C-332.34205679 46.69876619 -334.68449677 46.40049392 -337.02734375 46.10546875 C-353.93855158 43.88402504 -370.5641943 40.89598893 -387.23266602 37.30322266 C-401.80685592 34.16659675 -416.40962821 31.1842303 -431.050354 28.37420654 C-432.75322333 28.04736524 -434.45551917 27.7175388 -436.15771484 27.38720703 C-447.38557822 25.27169467 -458.53528307 24.68856165 -469.9375 24.5625 C-471.21786133 24.54002197 -472.49822266 24.51754395 -473.81738281 24.49438477 C-485.10335785 24.52286995 -496.00152202 26.52396143 -505.6875 32.5625 C-506.64011719 33.14128906 -507.59273438 33.72007813 -508.57421875 34.31640625 C-510.65599597 35.7612468 -512.38698903 37.05251853 -514 39 C-514 39.66 -514 40.32 -514 41 C-514.66 41 -515.32 41 -516 41 C-531.02982488 58.55483547 -536.03226997 83.55414932 -538 106 C-538.11085938 107.23363281 -538.22171875 108.46726562 -538.3359375 109.73828125 C-539.5065564 125.22525289 -539.29553337 140.80841976 -538.5625 156.3125 C-538.52334473 157.16038086 -538.48418945 158.00826172 -538.44384766 158.88183594 C-538.30715763 163.07592677 -538.30715763 163.07592677 -537 167 C-533.54422747 165.96326824 -530.37596004 164.73021157 -527.1875 163.0625 C-514.76310307 156.73264626 -501.78133324 155.64466381 -488.04052734 155.68432617 C-485.76741025 155.68747588 -483.49561262 155.66398155 -481.22265625 155.63867188 C-468.57921449 155.5837384 -456.60791815 156.93824125 -444.953125 162.23046875 C-442.88468141 163.18328667 -442.88468141 163.18328667 -440 163 C-440 163.66 -440 164.32 -440 165 C-437.9508379 166.42080444 -437.9508379 166.42080444 -435.375 167.8125 C-421.77892213 175.76744851 -414.27833519 186.95624304 -410.25 202.0625 C-408.9214615 207.44617055 -408.567918 212.32082003 -408 218 C-427.8 218 -447.6 218 -468 218 C-468.495 213.545 -468.495 213.545 -469 209 C-470.91731599 204.68603903 -472.81657817 202.75998775 -477.125 201.0625 C-482.74346084 199.50747295 -488.56413972 199.40030797 -493.9296875 201.8984375 C-496.20925799 203.34907327 -497.7804292 204.56085839 -499 207 C-499.62470722 212.77401673 -499.62470722 212.77401673 -497.0625 217.75 C-488.35435357 224.14782187 -477.84667535 226.18072226 -467.46801758 228.42871094 C-447.87420093 232.6835316 -425.38161371 238.53323649 -413.27734375 255.96875 C-407.37535896 265.35416924 -405.6177385 274.28411637 -405.6875 285.3125 C-405.69487183 286.69453613 -405.69487183 286.69453613 -405.70239258 288.10449219 C-405.96778609 303.57080932 -410.7646097 314.27089843 -421.3203125 325.484375 C-425.19420392 329.1210894 -429.25798981 331.6481468 -434 334 C-434.70511719 334.36480469 -435.41023438 334.72960937 -436.13671875 335.10546875 C-447.70096489 340.6845228 -460.04596362 342.95694252 -472.78125 343.31640625 C-473.48020386 343.33718735 -474.17915771 343.35796844 -474.89929199 343.37937927 C-477.09944259 343.44398535 -479.29969696 343.50333909 -481.5 343.5625 C-483.00521842 343.60577017 -484.51042693 343.64938693 -486.015625 343.69335938 C-489.67697744 343.79957319 -493.33844234 343.90108196 -497 344 C-496.3919915 347.3574096 -495.56900153 350.46461552 -494.3984375 353.66796875 C-494.07665527 354.55234619 -493.75487305 355.43672363 -493.42333984 356.34790039 C-493.0773877 357.28496826 -492.73143555 358.22203613 -492.375 359.1875 C-492.01744629 360.16130615 -491.65989258 361.1351123 -491.29150391 362.13842773 C-486.69602172 374.60273312 -482.08840196 386.99359218 -476.390625 399.00390625 C-475.04181504 401.90990973 -473.82155741 404.8410491 -472.625 407.8125 C-467.1524151 421.06831676 -460.11867416 433.55534188 -453.09716797 446.03613281 C-451.68105439 448.57089419 -450.30836834 451.12803945 -448.9375 453.6875 C-446.45707899 458.23612306 -443.87692419 462.72230302 -441.25 467.1875 C-440.86062256 467.86063232 -440.47124512 468.53376465 -440.07006836 469.22729492 C-439.10318559 470.85313736 -438.05805558 472.43196163 -437 474 C-436.34 474 -435.68 474 -435 474 C-434.76152344 474.6909375 -434.52304687 475.381875 -434.27734375 476.09375 C-432.76222161 479.54100038 -430.76286087 482.46850495 -428.5625 485.5 C-427.90640747 486.41096436 -427.90640747 486.41096436 -427.23706055 487.34033203 C-422.48674124 493.84413621 -417.2923247 499.93536985 -412 506 C-410.97326172 507.19496094 -410.97326172 507.19496094 -409.92578125 508.4140625 C-405.34054788 513.72537404 -400.69463189 518.84445781 -395 523 C-394.34 523 -393.68 523 -393 523 C-393 523.66 -393 524.32 -393 525 C-376.70759917 538.661106 -356.3928408 547.15185958 -335 546 C-314.17140146 543.75014941 -296.52749999 536.0968085 -279 525 C-277.88882812 524.29875 -276.77765625 523.5975 -275.6328125 522.875 C-273.81540525 521.71802987 -272.00305563 520.55301592 -270.19921875 519.375 C-268.1789197 518.11186453 -266.14988054 517.0232841 -264 516 C-264 515.34 -264 514.68 -264 514 C-263.42121094 513.73058594 -262.84242188 513.46117187 -262.24609375 513.18359375 C-259.97559715 511.98714076 -258.0856366 510.63694096 -256.0625 509.0625 C-253.84234495 507.36038112 -251.735867 505.8464343 -249.3125 504.4375 C-246.44875564 502.65733459 -244.34508224 500.40846284 -242 498 C-241.34 497.67 -240.68 497.34 -240 497 C-240 496.34 -240 495.68 -240 495 C-239.41992188 494.73832031 -238.83984375 494.47664063 -238.2421875 494.20703125 C-235.86901245 492.9294858 -234.1199157 491.49414053 -232.125 489.6875 C-229.63224873 487.44682471 -227.12196247 485.27512889 -224.5 483.1875 C-223.675 482.465625 -222.85 481.74375 -222 481 C-222 480.34 -222 479.68 -222 479 C-221.4121875 478.72800781 -220.824375 478.45601563 -220.21875 478.17578125 C-215.82155068 475.84557527 -212.14684054 472.44279939 -209.0625 468.5625 C-207.26986389 466.33528544 -205.60187696 464.73147639 -203.4375 462.8984375 C-198.72888039 458.82153332 -194.32885378 454.47620163 -189.9375 450.0625 C-189.17373047 449.30259766 -188.40996094 448.54269531 -187.62304688 447.75976562 C-183.46136216 443.59096084 -179.49181704 439.32814893 -175.65014648 434.86401367 C-172.59237527 431.40994011 -169.2486348 428.24481483 -165.92382812 425.05078125 C-164.58019807 423.7360282 -163.28530024 422.37183112 -162 421 C-162 420.34 -162 419.68 -162 419 C-161.443125 418.773125 -160.88625 418.54625 -160.3125 418.3125 C-154.67039596 415.11022473 -149.93283689 409.13422222 -146 404 C-146 403.34 -146 402.68 -146 402 C-145.4328125 401.77054687 -144.865625 401.54109375 -144.28125 401.3046875 C-141.40174004 399.65784447 -139.66944114 397.62877282 -137.5 395.125 C-135.29676079 392.59731118 -133.13542826 390.13032651 -130.71875 387.8046875 C-128.77011494 386.17398527 -128.77011494 386.17398527 -129 384 C-128.01 383.67 -127.02 383.34 -126 383 C-124.28385151 381.3446479 -124.28385151 381.3446479 -122.625 379.3125 C-122.01140625 378.590625 -121.3978125 377.86875 -120.765625 377.125 C-119.29740148 375.35793452 -117.83484094 373.58648392 -116.375 371.8125 C-113.33225814 368.20925306 -110.00106642 364.97472256 -106.625 361.6875 C-103.86405412 358.86081732 -101.29072359 355.91675596 -98.7109375 352.92578125 C-97.2378362 351.26770147 -95.72638071 349.71945669 -94.125 348.1875 C-91.79349596 346.10416336 -91.79349596 346.10416336 -91 343 C-90.01 342.67 -89.02 342.34 -88 342 C-88 341.34 -88 340.68 -88 340 C-114.4 340 -140.8 340 -168 340 C-168 279.94 -168 219.88 -168 158 C-124.44 158 -80.88 158 -36 158 C-36 173.84 -36 189.68 -36 206 C-59.1 206 -82.2 206 -106 206 C-106 212.6 -106 219.2 -106 226 C-85.21 226 -64.42 226 -43 226 C-43 241.18 -43 256.36 -43 272 C-63.79 272 -84.58 272 -106 272 C-106 278.6 -106 285.2 -106 292 C-98.20221374 292.22677111 -90.40625779 292.40984997 -82.60607243 292.51812172 C-78.98311561 292.57011465 -75.36254819 292.64050187 -71.7409668 292.75439453 C-68.23940905 292.86381163 -64.74013394 292.92299052 -61.2369976 292.94877243 C-59.26392529 292.97599315 -57.29176093 293.05394659 -55.32008362 293.13296509 C-48.27871887 293.13748743 -48.27871887 293.13748743 -42.240448 289.86102295 C-39.94723975 287.34139991 -37.95535891 284.78682521 -36 282 C-34.83928682 280.53692374 -33.67367299 279.07770057 -32.5 277.625 C-31.32988227 276.08595103 -30.1635651 274.5440089 -29 273 C-28.19691406 271.95714844 -27.39382813 270.91429687 -26.56640625 269.83984375 C-25.73134761 268.74771931 -24.89670852 267.65527394 -24.0625 266.5625 C-23.29035156 265.55316406 -22.51820313 264.54382813 -21.72265625 263.50390625 C-19.81106616 261.23192493 -19.81106616 261.23192493 -20 259 C-19.01 258.67 -18.02 258.34 -17 258 C-15.94410931 256.36816893 -14.9563874 254.69207001 -14 253 C-13.5932797 252.50497451 -13.18655939 252.00994902 -12.76751423 251.49992275 C-8.86622818 246.74600553 -8.2962643 243.16699422 -8.43237305 237.12719727 C-8.43127785 235.83819267 -8.43127785 235.83819267 -8.43016052 234.52314758 C-8.43362352 231.70357509 -8.47242243 228.88568747 -8.51171875 226.06640625 C-8.52105148 224.10343834 -8.52816542 222.14045873 -8.53315735 220.17747498 C-8.55219086 215.02661634 -8.60126032 209.87646967 -8.65667725 204.72589111 C-8.71697269 198.53766847 -8.73980332 192.34920694 -8.76894379 186.16077423 C-8.81732738 176.77335527 -8.91316807 167.38749654 -9 158 C5.52 158 20.04 158 35 158 C37.63614946 152.07292628 37.63614946 152.07292628 38.9140625 146.1796875 C39.03523437 145.3134375 39.15640625 144.4471875 39.28125 143.5546875 C39.3946875 142.67039063 39.508125 141.78609375 39.625 140.875 C39.74617187 140.01390625 39.86734375 139.1528125 39.9921875 138.265625 C41.54946124 126.78919463 42.32002324 115.90092702 40.875 104.375 C40.73666748 103.24763428 40.59833496 102.12026855 40.45581055 100.95874023 C37.33076268 77.1756234 29.28434469 53.79711137 14.34765625 34.7578125 C13.04313148 33.05625846 11.89256086 31.31291945 10.75 29.5 C10.1725 28.675 9.595 27.85 9 27 C8.34 27 7.68 27 7 27 C6.7421875 26.41734375 6.484375 25.8346875 6.21875 25.234375 C4.90165983 22.8197097 3.44911616 21.18259823 1.5 19.25 C0.8915625 18.63640625 0.283125 18.0228125 -0.34375 17.390625 C-1.89484277 15.78565912 -1.89484277 15.78565912 -4 16 C-4.33 15.01 -4.66 14.02 -5 13 C-7.63541018 10.59004634 -7.63541018 10.59004634 -11 10 C-11 9.34 -11 8.68 -11 8 C-14.22114157 5.68407978 -14.22114157 5.68407978 -18 5 C-18 4.34 -18 3.68 -18 3 C-53.9149279 -17.53009354 -91.98498349 -14.80594499 -129.42578125 0.94140625 Z M-521 264 C-520.71515154 265.73030291 -520.42180062 267.45920714 -520.125 269.1875 C-519.96257812 270.15042969 -519.80015625 271.11335938 -519.6328125 272.10546875 C-518.99170581 275.41832084 -518.99170581 275.41832084 -517 280 C-511.06 280 -505.12 280 -499 280 C-499 282.31 -499 284.62 -499 287 C-497.82535799 290.35205607 -497.82535799 290.35205607 -496 293 C-495.01 293.33 -494.02 293.66 -493 294 C-493 294.66 -493 295.32 -493 296 C-486.59750713 298.69578647 -480.36308681 298.62279385 -473.625 297.375 C-470.02143045 295.48741595 -468.72961833 293.66679086 -467 290 C-466.91369169 285.16673441 -468.0313021 281.90320172 -471.38671875 278.33984375 C-481.12152623 270.25500364 -497.65443396 268.9466373 -509.79296875 266.7109375 C-512.71738915 266.06264942 -515.23441576 265.11769726 -518 264 C-518.99 264 -519.98 264 -521 264 Z " fill="#FEFEFE" transform="translate(837,25)"/>
<path d="M0 0 C1.14604706 0.00406357 1.14604706 0.00406357 2.31524658 0.00820923 C13.8320301 0.07005622 24.63804695 0.77518232 35.625 4.4375 C37.39037109 5.01564453 37.39037109 5.01564453 39.19140625 5.60546875 C53.11882874 10.59222837 68.2726144 18.62732023 77.625 30.4375 C77.625 31.0975 77.625 31.7575 77.625 32.4375 C78.615 32.7675 79.605 33.0975 80.625 33.4375 C81.8125 36 81.8125 36 82.625 38.4375 C83.285 38.4375 83.945 38.4375 84.625 38.4375 C93.20179545 52.44130001 98.18944408 66.06902276 100.35058594 82.37744141 C100.5873329 84.15472868 100.8569878 85.92757547 101.1328125 87.69921875 C103.80979973 109.48533825 96.87186051 133.4151314 84.625 151.4375 C83.965 151.4375 83.305 151.4375 82.625 151.4375 C82.25375 152.54158203 82.25375 152.54158203 81.875 153.66796875 C80.50605415 156.70103941 78.99626415 158.43540209 76.625 160.75 C75.92375 161.44738281 75.2225 162.14476562 74.5 162.86328125 C72.625 164.4375 72.625 164.4375 70.625 164.4375 C70.295 165.4275 69.965 166.4175 69.625 167.4375 C67.0625 168.625 67.0625 168.625 64.625 169.4375 C64.625 170.0975 64.625 170.7575 64.625 171.4375 C62.4375 172.9453125 62.4375 172.9453125 59.625 174.5625 C58.696875 175.10132813 57.76875 175.64015625 56.8125 176.1953125 C56.090625 176.60523438 55.36875 177.01515625 54.625 177.4375 C55.80896228 182.92677968 57.15655347 185.73195897 61.625 189.4375 C64.67263934 190.45337978 66.97218967 190.63554406 70.16796875 190.75390625 C71.13500732 190.79201416 72.1020459 190.83012207 73.09838867 190.86938477 C74.32404541 190.91248779 75.54970215 190.95559082 76.8125 191 C80.710625 191.144375 84.60875 191.28875 88.625 191.4375 C88.625 205.6275 88.625 219.8175 88.625 234.4375 C78.6321875 234.5303125 78.6321875 234.5303125 68.4375 234.625 C66.36315674 234.65231201 64.28881348 234.67962402 62.15161133 234.70776367 C45.05970231 234.83947884 28.63379747 232.82856128 15.625 220.4375 C15.625 219.7775 15.625 219.1175 15.625 218.4375 C15.026875 218.20289063 14.42875 217.96828125 13.8125 217.7265625 C11.08953688 216.12195923 10.18261003 214.54678282 8.625 211.8125 C8.11324219 210.9153125 7.60148438 210.018125 7.07421875 209.09375 C3.74672978 202.99484839 1.01937532 196.9586458 -1.375 190.4375 C-1.96700195 190.40833496 -2.55900391 190.37916992 -3.16894531 190.34912109 C-21.03912316 189.37469714 -38.76844391 186.82345349 -54.375 177.4375 C-55.26058594 176.92574219 -56.14617187 176.41398438 -57.05859375 175.88671875 C-66.6598178 170.09402463 -75.75312839 162.58094524 -82.375 153.4375 C-82.375 152.7775 -82.375 152.1175 -82.375 151.4375 C-83.035 151.4375 -83.695 151.4375 -84.375 151.4375 C-93.17145112 137.07505624 -97.96357467 123.08139368 -100.375 106.4375 C-100.50777344 105.52613281 -100.64054687 104.61476563 -100.77734375 103.67578125 C-103.6163421 81.39158874 -97.15834292 58.99856601 -85.63671875 40.02734375 C-85.22035156 39.50269531 -84.80398438 38.97804687 -84.375 38.4375 C-83.715 38.4375 -83.055 38.4375 -82.375 38.4375 C-82.04242188 37.37789062 -82.04242188 37.37789062 -81.703125 36.296875 C-80.07866214 32.79950203 -77.83315103 30.36213646 -75.125 27.6875 C-74.33633545 26.90524048 -74.33633545 26.90524048 -73.53173828 26.10717773 C-53.52837421 6.93410877 -27.04561817 -0.22621045 0 0 Z M-16.375 61.4375 C-17.04660156 61.78941406 -17.71820312 62.14132813 -18.41015625 62.50390625 C-23.3152872 65.28195238 -27.23681245 68.71833161 -30.375 73.4375 C-30.375 74.0975 -30.375 74.7575 -30.375 75.4375 C-31.035 75.4375 -31.695 75.4375 -32.375 75.4375 C-36.75215093 87.825663 -38.03261019 98.84227244 -33.375 111.4375 C-28.14122758 120.95344986 -20.98074457 127.51077155 -10.640625 131.02734375 C-0.75345953 132.81726164 9.79038648 132.40697011 18.625 127.4375 C19.676875 126.86 20.72875 126.2825 21.8125 125.6875 C29.79946568 119.29792746 33.99559665 112.22668062 36.375 102.3125 C37.41852145 90.31200335 35.55402254 79.21177955 28.09375 69.4296875 C22.00824444 62.79878286 13.77371909 58.71069734 4.796875 58.234375 C-6.15564206 57.95370678 -6.15564206 57.95370678 -16.375 61.4375 Z " fill="#FFFFFF" transform="translate(546.375,179.5625)"/>
<path d="M0 0 C50.75102881 0 50.75102881 0 54.37109375 2.8984375 C55.39396484 4.12433594 55.39396484 4.12433594 56.4375 5.375 C57.18773437 6.26960937 57.93796875 7.16421875 58.7109375 8.0859375 C69 21.18430034 69 21.18430034 69 24 C69.66 24 70.32 24 71 24 C72.33984375 25.66015625 72.33984375 25.66015625 73.9375 28.0625 C76.94362831 32.47852734 80.02309806 36.82202061 83.1875 41.125 C83.65124023 41.75639893 84.11498047 42.38779785 84.59277344 43.03833008 C88.55563605 48.42101668 92.56133555 53.77132739 96.58862305 59.10595703 C100.79627535 64.69008215 104.88510002 70.34201253 109 76 C109 50.92 109 25.84 109 0 C129.79 0 150.58 0 172 0 C172 60.06 172 120.12 172 182 C154.51 182 137.02 182 119 182 C114.05 175.07 114.05 175.07 109 168 C104.74942954 162.12421143 100.49749072 156.27205594 96.03125 150.55859375 C95 149 95 149 95 147 C94.34 147 93.68 147 93 147 C91.34375 144.98828125 91.34375 144.98828125 89.5 142.3125 C88.8915625 141.44238281 88.283125 140.57226562 87.65625 139.67578125 C86.10269515 137.1659108 84.99834825 134.77041639 84 132 C83.34 132 82.68 132 82 132 C80.34375 129.98828125 80.34375 129.98828125 78.5 127.3125 C77.8915625 126.44238281 77.283125 125.57226562 76.65625 124.67578125 C75.10269515 122.1659108 73.99834825 119.77041639 73 117 C72.34 117 71.68 117 71 117 C67 111.58823529 67 111.58823529 67 109 C66.34 109 65.68 109 65 109 C64.67 108.34 64.34 107.68 64 107 C63.67 131.75 63.34 156.5 63 182 C42.21 182 21.42 182 0 182 C0 121.94 0 61.88 0 0 Z " fill="#FEFEFE" transform="translate(828,183)"/>
<path d="M0 0 C24.4096875 -0.12375 24.4096875 -0.12375 49.3125 -0.25 C54.41243408 -0.28641602 59.51236816 -0.32283203 64.7668457 -0.36035156 C71.09216309 -0.37841797 71.09216309 -0.37841797 74.07218933 -0.3817749 C76.11222343 -0.38783632 78.15224506 -0.40173193 80.19218445 -0.42230225 C103.09596925 -0.64130539 123.99608953 2.23854759 143 16 C143 16.66 143 17.32 143 18 C143.59941406 18.26554687 144.19882813 18.53109375 144.81640625 18.8046875 C155.05065522 24.40697764 159.95631615 38.61635547 163 49 C166.9571239 69.30499202 164.47855072 89.72036905 153.5703125 107.3046875 C152.25 109.25 152.25 109.25 150 112 C149.34 112 148.68 112 148 112 C147.731875 112.639375 147.46375 113.27875 147.1875 113.9375 C146 116 146 116 143 117 C143 117.66 143 118.32 143 119 C142.01 119.66 141.02 120.32 140 121 C140.64694758 125.59066911 142.44741397 129.48809429 144.4375 133.625 C144.78876953 134.36355225 145.14003906 135.10210449 145.50195312 135.86303711 C148.98788887 143.11551731 152.75287852 150.21522171 156.52734375 157.3203125 C158.92166031 161.83488037 161.2621981 166.37435524 163.5625 170.9375 C163.89701172 171.59371338 164.23152344 172.24992676 164.57617188 172.92602539 C166.08164348 175.93023359 167.26048311 178.72791535 168 182 C158.92505331 182.11577531 149.85036021 182.20465431 140.77483654 182.25906086 C136.56080762 182.28517157 132.34728335 182.32059527 128.13354492 182.37719727 C124.06810349 182.43146638 120.00314786 182.46140943 115.93737221 182.47438622 C114.38513856 182.48363546 112.83293195 182.50169734 111.28090477 182.52865028 C109.10880158 182.56487639 106.93871337 182.56994858 104.76635742 182.56762695 C103.52947678 182.57873001 102.29259613 182.58983307 101.01823425 182.60127258 C98 182 98 182 96.14605713 179.61254883 C95.76785828 178.75040771 95.38965942 177.8882666 95 177 C94.63592041 176.21842529 94.27184082 175.43685059 93.89672852 174.6315918 C93.56084717 173.82890869 93.22496582 173.02622559 92.87890625 172.19921875 C92.50056641 171.30396484 92.12222656 170.40871094 91.73242188 169.48632812 C91.15331055 168.1009082 91.15331055 168.1009082 90.5625 166.6875 C88.16292878 160.96171034 85.72856425 155.30166887 82.90405273 149.77124023 C81.62738381 147.26996208 80.43090048 144.73518344 79.25 142.1875 C78.82203125 141.27355469 78.3940625 140.35960937 77.953125 139.41796875 C77 137 77 137 77 134 C72.38 134 67.76 134 63 134 C63 149.84 63 165.68 63 182 C42.21 182 21.42 182 0 182 C0 121.94 0 61.88 0 0 Z M62 50 C62 62.21 62 74.42 62 87 C67.4140625 87.0928125 67.4140625 87.0928125 72.9375 87.1875 C74.05632568 87.21481201 75.17515137 87.24212402 76.32788086 87.27026367 C82.99262116 87.32505204 90.34323929 87.19739357 95.62084961 82.58276367 C100.39889824 77.09929947 100.28070909 72.13459538 100.21875 65.1796875 C99.96103863 61.43366871 99.27628366 59.00794627 97 56 C94.94906855 54.59533047 94.94906855 54.59533047 93 54 C93 53.34 93 52.68 93 52 C88.82237097 50.42589988 85.40275519 49.75873448 80.9453125 49.8046875 C79.94516113 49.80968262 78.94500977 49.81467773 77.91455078 49.81982422 C76.03872314 49.84713623 76.03872314 49.84713623 74.125 49.875 C68.123125 49.936875 68.123125 49.936875 62 50 Z " fill="#FFFFFF" transform="translate(0,183)"/>
<path d="M0 0 C43.56 0 87.12 0 132 0 C132 15.84 132 31.68 132 48 C108.9 48 85.8 48 62 48 C62 54.6 62 61.2 62 68 C82.79 68 103.58 68 125 68 C125 83.18 125 98.36 125 114 C104.21 114 83.42 114 62 114 C62 120.6 62 127.2 62 134 C82.13 134 102.26 134 123 134 C121.29381676 138.26545811 120.02020458 140.69665125 117 144 C116.34 144 115.68 144 115 144 C114.76667969 144.55171875 114.53335938 145.1034375 114.29296875 145.671875 C112.65980716 148.61255267 110.60660793 150.79077251 108.3125 153.25 C107.40444652 154.2326098 106.49689654 155.21568513 105.58984375 156.19921875 C104.30787109 157.58560547 104.30787109 157.58560547 103 159 C98.32225471 164.18804477 93.94963718 169.54899983 89.69921875 175.09375 C89.13847656 175.7228125 88.57773437 176.351875 88 177 C87.34 177 86.68 177 86 177 C85.5359375 177.9590625 85.5359375 177.9590625 85.0625 178.9375 C84 181 84 181 83 182 C55.61 182 28.22 182 0 182 C0 121.94 0 61.88 0 0 Z " fill="#FEFEFE" transform="translate(669,183)"/>
<path d="M0 0 C3.8211165 3.15585259 7.599507 6.39131355 11 10 C11 10.66 11 11.32 11 12 C11.57105469 12.226875 12.14210938 12.45375 12.73046875 12.6875 C22.89644474 18.56661864 30.66095686 33.74164981 36 44 C36.70769531 45.32064453 36.70769531 45.32064453 37.4296875 46.66796875 C55.37535741 81.11807602 60.21823589 124.84420414 48.59692383 162.13769531 C48.30144653 163.05953613 48.30144653 163.05953613 48 164 C47.319375 163.360625 46.63875 162.72125 45.9375 162.0625 C42.53092462 159.6706492 40.07496036 159.47018773 36 159 C35 157 35 157 35.49267578 155.109375 C35.7657959 154.33078125 36.03891602 153.5521875 36.3203125 152.75 C46.74932492 119.5484006 39.49452975 81.54077507 24.05273438 51.13476562 C20.1748162 43.8522512 15.46136833 37.33479773 10.328125 30.90625 C9 29 9 29 9 27 C8.34 27 7.68 27 7 27 C5.58984375 25.53125 5.58984375 25.53125 3.9375 23.5 C-0.25342646 18.56069382 -5.13318853 12.93340574 -11 10 C-11 9.34 -11 8.68 -11 8 C-11.78375 7.690625 -12.5675 7.38125 -13.375 7.0625 C-16 6 -16 6 -18 5 C-18 4.34 -18 3.68 -18 3 C-18.804375 2.773125 -19.60875 2.54625 -20.4375 2.3125 C-23.28808233 1.26228546 -25.37858331 0.22866574 -27.9375 -1.3125 C-51.58714919 -14.74709063 -80.3561378 -12.74645487 -105.81298828 -6.28613281 C-113.84540514 -4.02991879 -121.73421129 -1.29361707 -129.42578125 1.94140625 C-132.87660009 3.3604835 -136.37641062 4.64229831 -139.875 5.9375 C-147.29504834 8.70176436 -154.59658533 11.69347615 -161.87939453 14.80224609 C-172.04905796 19.13761836 -182.26051092 23.36902625 -192.51153564 27.50827026 C-193.81964842 28.0373334 -195.1269264 28.56846608 -196.43328857 29.10183716 C-203.40472785 31.94514054 -210.27376404 34.49331478 -217.57421875 36.34448242 C-219.7821448 36.94112911 -221.84492804 37.65787864 -223.96875 38.5 C-229.01844508 40.47061271 -234.24291059 41.70983221 -239.5 43 C-240.55791748 43.26127686 -241.61583496 43.52255371 -242.70581055 43.79174805 C-259.81778974 47.96016739 -276.27538091 50.18719245 -293.90454102 50.18530273 C-296.16637281 50.18747967 -298.42770763 50.20567749 -300.68945312 50.22460938 C-310.63550969 50.26353653 -320.1561722 49.42503895 -330 48 C-332.34205679 47.69876619 -334.68449677 47.40049392 -337.02734375 47.10546875 C-353.93855158 44.88402504 -370.5641943 41.89598893 -387.23266602 38.30322266 C-401.80685592 35.16659675 -416.40962821 32.1842303 -431.050354 29.37420654 C-432.75322333 29.04736524 -434.45551917 28.7175388 -436.15771484 28.38720703 C-447.38557822 26.27169467 -458.53528307 25.68856165 -469.9375 25.5625 C-471.21786133 25.54002197 -472.49822266 25.51754395 -473.81738281 25.49438477 C-486.06774332 25.525304 -496.85587669 27.96982481 -507.109375 34.828125 C-509 36 -509 36 -511 36 C-511.33 36.99 -511.66 37.98 -512 39 C-512.66 39 -513.32 39 -514 39 C-514 39.66 -514 40.32 -514 41 C-514.66 41 -515.32 41 -516 41 C-516.27328125 41.58265625 -516.5465625 42.1653125 -516.828125 42.765625 C-517.97466558 44.9516957 -519.27871897 46.77247173 -520.75 48.75 C-531.5344296 64.88728516 -535.33391805 86.99504195 -537 106 C-537.11085938 107.23363281 -537.22171875 108.46726563 -537.3359375 109.73828125 C-539.61315321 139.86522958 -538.63265145 171.87665269 -533.39672852 201.65991211 C-532.94712985 204.31185257 -532.56890935 206.97077013 -532.18359375 209.6328125 C-530.79104658 218.72933266 -528.97007321 227.74442266 -527.16870117 236.76733398 C-526.56059375 239.8220758 -525.96280243 242.8787282 -525.36523438 245.93554688 C-524.97458787 247.90116689 -524.58333309 249.86666613 -524.19140625 251.83203125 C-523.92874718 253.18540337 -523.92874718 253.18540337 -523.66078186 254.56611633 C-522.5682268 259.97124687 -521.0631164 264.88443858 -519 270 C-517.43656313 274.1965937 -517 276.37709208 -517 281 C-521.29 281 -525.58 281 -530 281 C-531.53252736 276.70892338 -532.92925709 272.52420668 -533.80859375 268.05078125 C-535.3697704 259.00942352 -535.3697704 259.00942352 -541.0625 252.1875 C-542.37119074 251.45151845 -543.68343994 250.72181014 -545 250 C-546.74609375 248.48828125 -546.74609375 248.48828125 -548 247 C-548 246.34 -548 245.68 -548 245 C-548.66 245 -549.32 245 -550 245 C-551.13829431 242.86037192 -552.26034158 240.71441001 -553.375 238.5625 C-553.69210937 237.97017578 -554.00921875 237.37785156 -554.3359375 236.76757812 C-558.40004701 228.85103148 -559.37147083 221.00492177 -559.3125 212.1875 C-559.30758545 211.31311279 -559.3026709 210.43872559 -559.29760742 209.5378418 C-559.14013284 200.8072897 -558.09421358 193.08284306 -553.3125 185.625 C-549.80782327 179.71020023 -550.59545923 173.64249766 -551 167 C-551.17253528 163.79196604 -551.33704522 160.5835339 -551.5 157.375 C-551.54503662 156.49924316 -551.59007324 155.62348633 -551.63647461 154.72119141 C-553.56223642 114.65827867 -553.46421771 66.83779894 -527 34 C-526.39929688 33.19433594 -525.79859375 32.38867188 -525.1796875 31.55859375 C-522.76489825 28.72402931 -520.23468368 26.66054808 -517.25 24.4375 C-516.26515625 23.69371094 -515.2803125 22.94992188 -514.265625 22.18359375 C-497.25079118 10.80645008 -476.7650504 11.15791216 -457 12 C-455.75742432 12.05003174 -455.75742432 12.05003174 -454.48974609 12.10107422 C-431.44818505 13.24553888 -408.21973314 19.15338023 -385.75 24.0625 C-338.45966806 34.36680719 -289.51622472 42.7378515 -242 29 C-240.64992815 28.62562141 -239.29966252 28.25194104 -237.94921875 27.87890625 C-212.20509036 20.64967994 -187.18087979 10.66432005 -162.68359375 0.0234375 C-108.60093424 -23.44701494 -50.88103499 -40.2537968 0 0 Z " fill="#8D40DD" transform="translate(837,25)"/>
<path d="M0 0 C21.12 0 42.24 0 64 0 C64 60.06 64 120.12 64 182 C42.88 182 21.76 182 0 182 C0 121.94 0 61.88 0 0 Z " fill="#FFFFFF" transform="translate(191,183)"/>
<path d="M0 0 C0.66 0 1.32 0 2 0 C2.05425013 2.87525669 2.09379277 5.74947646 2.125 8.625 C2.14175781 9.43324219 2.15851563 10.24148438 2.17578125 11.07421875 C2.24107531 19.10538844 0.34110126 24.1004245 -4.75 30.375 C-5.65160305 31.51127354 -6.55264586 32.64799183 -7.453125 33.78515625 C-8.10764648 34.6052417 -8.10764648 34.6052417 -8.77539062 35.44189453 C-10.88852139 38.13049113 -12.8657398 40.91826687 -14.84375 43.70703125 C-15.2253125 44.13371094 -15.606875 44.56039062 -16 45 C-16.66 45 -17.32 45 -18 45 C-18.268125 45.804375 -18.53625 46.60875 -18.8125 47.4375 C-19.204375 48.283125 -19.59625 49.12875 -20 50 C-21.485 50.495 -21.485 50.495 -23 51 C-23.33 65.19 -23.66 79.38 -24 94 C-42.315 94.495 -42.315 94.495 -61 95 C-61.66 96.32 -62.32 97.64 -63 99 C-64.41660864 100.68188092 -65.87956086 102.32530731 -67.375 103.9375 C-70.39067604 107.20027993 -73.23484675 110.52314064 -76 114 C-77.6436814 115.68933922 -79.3142876 117.35259924 -81 119 C-82.37806667 120.35104575 -83.7528585 121.70543697 -85.125 123.0625 C-85.78757812 123.71347656 -86.45015625 124.36445313 -87.1328125 125.03515625 C-89.05379942 126.96776649 -89.05379942 126.96776649 -90.6171875 129.24609375 C-91.07351563 129.82488281 -91.52984375 130.40367187 -92 131 C-92.66 131 -93.32 131 -94 131 C-94.24363281 131.57234375 -94.48726562 132.1446875 -94.73828125 132.734375 C-96.22517298 135.40433538 -97.98083908 137.13829007 -100.1875 139.25 C-104.94716063 143.90287337 -109.29358937 148.80151471 -113.58984375 153.87890625 C-121.60605444 163.32294073 -121.60605444 163.32294073 -125.1875 165.0625 C-127.14383514 165.84669994 -127.14383514 165.84669994 -127.875 167.78125 C-129.2011027 170.39661922 -130.84459288 172.26640553 -132.8125 174.4375 C-133.52664063 175.22640625 -134.24078125 176.0153125 -134.9765625 176.828125 C-137.25983351 179.27889466 -139.63169035 181.63169035 -142 184 C-142.825 184.99 -143.65 185.98 -144.5 187 C-146.87353344 189.84824012 -149.27004182 192.49138978 -152 195 C-152.66 195 -153.32 195 -154 195 C-154.33 195.99 -154.66 196.98 -155 198 C-155.66 198 -156.32 198 -157 198 C-157.2475 198.61875 -157.495 199.2375 -157.75 199.875 C-159.20628639 202.35068687 -160.37812506 202.95125002 -163 204 C-163 204.66 -163 205.32 -163 206 C-163.66 206 -164.32 206 -165 206 C-165.2475 206.61875 -165.495 207.2375 -165.75 207.875 C-167.23740369 210.40358627 -168.43678009 210.71839004 -171 212 C-171.68268138 213.32520503 -172.3507041 214.65812182 -173 216 C-173.99 216.33 -174.98 216.66 -176 217 C-176.70294753 218.31456723 -177.36596944 219.65084194 -178 221 C-181.85714125 225.47219891 -186.43320153 229.27260209 -190.8984375 233.1171875 C-193.18665111 235.16722274 -195.34260582 237.31295092 -197.5 239.5 C-208.27008929 250.38169643 -208.27008929 250.38169643 -214 253 C-214 253.66 -214 254.32 -214 255 C-217.46153846 258 -217.46153846 258 -220 258 C-220.33 258.99 -220.66 259.98 -221 261 C-222.53564453 262.36376953 -222.53564453 262.36376953 -224.5078125 263.7578125 C-227.52380009 265.93400703 -230.49836333 268.14027802 -233.4296875 270.4296875 C-234.52796875 271.28046875 -234.52796875 271.28046875 -235.6484375 272.1484375 C-237.15880228 273.31963265 -238.6665352 274.49422822 -240.171875 275.671875 C-240.89632813 276.23132813 -241.62078125 276.79078125 -242.3671875 277.3671875 C-243.01800293 277.87362793 -243.66881836 278.38006836 -244.33935547 278.90185547 C-246 280 -246 280 -248 280 C-248 280.66 -248 281.32 -248 282 C-249.80078125 283.26171875 -249.80078125 283.26171875 -252.3125 284.6875 C-256.03569499 286.83891141 -259.66081873 289.06960032 -263.25 291.4375 C-277.80682947 300.70650502 -294.07390644 307.52990117 -311 311 C-311.85078125 311.185625 -312.7015625 311.37125 -313.578125 311.5625 C-318.7573466 312.22468358 -323.90897683 312.18440994 -329.125 312.1875 C-330.18976563 312.19974609 -331.25453125 312.21199219 -332.3515625 312.22460938 C-349.69456931 312.25618038 -364.57958458 307.66216387 -379 298 C-379.80695313 297.46632813 -380.61390625 296.93265625 -381.4453125 296.3828125 C-390.16749038 290.44954416 -398.66601123 284.13169304 -405.3671875 275.921875 C-407.05525614 273.88070916 -407.05525614 273.88070916 -409.3203125 271.69140625 C-412.36093399 268.63748759 -415.19267114 265.45481424 -418 262.1875 C-418.53036865 261.57092529 -419.0607373 260.95435059 -419.60717773 260.3190918 C-423.19697669 256.08772122 -426.19518717 251.79532516 -429 247 C-429.44085938 246.57332031 -429.88171875 246.14664063 -430.3359375 245.70703125 C-432.78614888 243.1935515 -434.63341494 240.29214384 -436.5625 237.375 C-437.21786743 236.38681274 -437.21786743 236.38681274 -437.88647461 235.37866211 C-442.4470425 228.4287976 -446.66676339 221.29268343 -450.80175781 214.08349609 C-451.93797293 212.10785229 -453.08861963 210.14132651 -454.2421875 208.17578125 C-463.774586 191.77074561 -471.52599129 174.41876409 -479 157 C-479.70514388 155.41524366 -480.41296592 153.83167254 -481.125 152.25 C-485.25108638 142.9447257 -488.97750843 133.52558385 -492.5625 124 C-492.93850342 123.00347412 -493.31450684 122.00694824 -493.7019043 120.98022461 C-500.67785043 102.3262543 -500.67785043 102.3262543 -502 95 C-500.24929483 95.11470137 -498.49942464 95.24219028 -496.75 95.375 C-495.77546875 95.44460938 -494.8009375 95.51421875 -493.796875 95.5859375 C-489.17356995 96.27039328 -489.17356995 96.27039328 -487 98 C-485.77584227 100.67974827 -484.79839906 103.21700548 -483.875 106 C-483.27167466 107.72210659 -482.66607515 109.44341759 -482.05859375 111.1640625 C-481.7322998 112.09766602 -481.40600586 113.03126953 -481.06982422 113.99316406 C-479.11496037 119.48748244 -477.02791434 124.93109053 -474.9375 130.375 C-474.50719482 131.49600098 -474.07688965 132.61700195 -473.63354492 133.77197266 C-471.06770393 140.39822384 -468.37026495 146.88291117 -465.28515625 153.28515625 C-463.95655798 156.09176962 -462.78405295 158.93208129 -461.625 161.8125 C-456.15363752 175.06535578 -449.12176685 187.54949666 -442.1015625 200.02734375 C-440.66165144 202.60590787 -439.26793396 205.20831912 -437.875 207.8125 C-434.99609968 213.14012012 -431.78374541 218.23758448 -428.5390625 223.34765625 C-427 226 -427 226 -427 228 C-426.34 228 -425.68 228 -425 228 C-423.625 229.94921875 -423.625 229.94921875 -422 232.6875 C-418.13089985 238.94562872 -413.78177775 244.68684453 -409.22558594 250.44970703 C-408.06399962 251.9190443 -406.91065833 253.39488872 -405.7578125 254.87109375 C-401.68903916 260.0376682 -397.65878236 264.87297411 -392.5 269 C-389.79861559 271.16110753 -387.44409253 273.55590747 -385 276 C-384.34 276.33 -383.68 276.66 -383 277 C-383 277.66 -383 278.32 -383 279 C-382.4946875 279.23074219 -381.989375 279.46148438 -381.46875 279.69921875 C-378.72428767 281.14527248 -376.17165892 282.79186576 -373.5703125 284.47827148 C-352.88043803 297.81201724 -333.47045238 301.33363851 -309.453125 296.31640625 C-291.16687754 292.1244674 -275.64019781 282.57940984 -260.19921875 272.27734375 C-258.09697754 271.05632621 -256.37669727 270.44053199 -254 270 C-254 269.34 -254 268.68 -254 268 C-252.30189246 266.62101957 -250.53964541 265.32040522 -248.75 264.0625 C-247.28820312 263.02802734 -247.28820312 263.02802734 -245.796875 261.97265625 C-244.87390625 261.32167969 -243.9509375 260.67070313 -243 260 C-242.26265625 259.42121094 -241.5253125 258.84242188 -240.765625 258.24609375 C-239 257 -239 257 -237 257 C-236.67 256.01 -236.34 255.02 -236 254 C-232.55555556 251 -232.55555556 251 -230 251 C-230 250.34 -230 249.68 -230 249 C-226.53846154 246 -226.53846154 246 -224 246 C-223.67 245.01 -223.34 244.02 -223 243 C-220.890625 241.1328125 -220.890625 241.1328125 -218.25 239.125 C-214.57692732 236.26700461 -211.20408452 233.38717506 -208 230 C-206.37163262 228.2958946 -204.71230248 226.61974559 -203 225 C-202.34 225 -201.68 225 -201 225 C-200.77699219 224.43925781 -200.55398438 223.87851562 -200.32421875 223.30078125 C-198.59453701 220.29552301 -196.41845209 218.47693969 -193.8125 216.1875 C-184.30584448 207.68928204 -175.02633552 198.7754212 -166.80078125 189.01953125 C-163.82202523 185.67893068 -160.6004198 182.58067372 -157.41699219 179.43652344 C-153.93007414 175.97603812 -150.63545509 172.40967487 -147.44921875 168.66796875 C-145.41658034 166.32851699 -143.19075226 164.19075226 -141 162 C-140.175 161.01 -139.35 160.02 -138.5 159 C-135.34627933 155.21553519 -131.8560867 151.84472272 -128.3515625 148.38671875 C-123.65419437 143.7364589 -119.05078653 139.06353907 -114.75 134.0390625 C-100.93166886 117.93823916 -100.93166886 117.93823916 -96.8125 115.9375 C-94.42861102 114.70445398 -94.17704378 113.38404868 -93 111 C-92.04119966 109.71812563 -91.04006043 108.4668707 -90 107.25 C-89.484375 106.63640625 -88.96875 106.0228125 -88.4375 105.390625 C-87 104 -87 104 -85 104 C-84.773125 103.46375 -84.54625 102.9275 -84.3125 102.375 C-81.4698561 97.23116819 -78.10095461 93.83386367 -73 91 C-72.67 90.34 -72.34 89.68 -72 89 C-71.34 89 -70.68 89 -70 89 C-69.66548828 88.18789063 -69.66548828 88.18789063 -69.32421875 87.359375 C-67.5791578 84.25018086 -65.24666429 81.82170845 -62.8125 79.25 C-61.81320957 78.17633241 -60.81451128 77.1021134 -59.81640625 76.02734375 C-59.33187988 75.50769043 -58.84735352 74.98803711 -58.34814453 74.45263672 C-53.38340552 69.10308997 -48.81505041 63.5595191 -44.48046875 57.6875 C-43.99191406 57.130625 -43.50335937 56.57375 -43 56 C-42.34 56 -41.68 56 -41 56 C-40.71769531 55.41734375 -40.43539063 54.8346875 -40.14453125 54.234375 C-36.17648897 46.48788973 -30.5594989 39.92287808 -25.04638672 33.25073242 C-20.80378272 28.08252455 -16.85342964 22.76643973 -13.07128906 17.25317383 C-10.196284 13.098142 -10.196284 13.098142 -8 12 C-6.97862543 10.34634594 -5.98387706 8.67623498 -5 7 C-4.16168645 5.71865366 -3.30682097 4.44801541 -2.4375 3.1875 C-2.02371094 2.58292969 -1.60992188 1.97835938 -1.18359375 1.35546875 C-0.79300781 0.90816406 -0.40242188 0.46085937 0 0 Z " fill="#8F31C1" transform="translate(827,271)"/>
<path d="M0 0 C0.66 0 1.32 0 2 0 C2.07927734 0.72960937 2.15855469 1.45921875 2.24023438 2.2109375 C4.33599755 20.96859687 7.45854899 39.35028788 11.35742188 57.81835938 C11.53138489 58.65068588 11.7053479 59.48301239 11.88458252 60.34056091 C12.21145811 61.89944915 12.54372261 63.45722156 12.88250732 65.01356506 C13.73653071 69.07787953 14.16809159 72.84789286 14 77 C9.25453357 74.48769424 5.57278975 72.11412154 2 68 C2 67.34 2 66.68 2 66 C1.34 66 0.68 66 0 66 C-1.13829431 63.86037192 -2.26034158 61.71441001 -3.375 59.5625 C-3.69210937 58.97017578 -4.00921875 58.37785156 -4.3359375 57.76757812 C-8.399838 49.85143861 -9.37231194 42.00463508 -9.3125 33.1875 C-9.30686035 32.3116626 -9.3012207 31.4358252 -9.29541016 30.53344727 C-9.07705905 18.83220603 -6.07712947 9.99087951 0 0 Z " fill="#FDFCFE" transform="translate(287,204)"/>
<path d="M0 0 C0.66 0 1.32 0 2 0 C2 13.53 2 27.06 2 41 C-9.88 41 -21.76 41 -34 41 C-30.38222237 36.17629649 -27.10155998 31.84673554 -23.0625 27.5 C-22.19753906 26.56027344 -21.33257813 25.62054688 -20.44140625 24.65234375 C-19.23291016 23.33943359 -19.23291016 23.33943359 -18 22 C-13.77531172 17.29300058 -9.68822201 12.47132881 -5.625 7.625 C-5.18349609 7.10043213 -4.74199219 6.57586426 -4.28710938 6.03540039 C-1.89979461 3.1829989 -1.89979461 3.1829989 0 0 Z " fill="#FCFBFE" transform="translate(801,324)"/>
</svg>
