<?xml version="1.0" encoding="UTF-8"?>
<svg version="1.1" xmlns="http://www.w3.org/2000/svg" width="1817" height="1059">
<path d="M0 0 C0.77263184 0.10183594 1.54526367 0.20367187 2.34130859 0.30859375 C14.38055773 1.94583057 25.46316904 4.76189459 36.6640625 9.57421875 C39.18336749 10.65097088 41.57063888 11.54467847 44.1875 12.3125 C53.15010753 15.25477015 61.34301752 20.12720454 69.5625 24.6875 C70.25351807 25.06793457 70.94453613 25.44836914 71.65649414 25.84033203 C76.64849542 28.64682663 76.64849542 28.64682663 78.54272461 30.55004883 C80.03952516 32.20393303 80.03952516 32.20393303 82.6875 33.25 C86.34745368 35.18356043 88.94140097 37.52901197 91.98046875 40.30078125 C93.84742245 41.87162238 95.59795086 42.99598065 97.75 44.125 C101.18899847 46.10903758 102.57738444 47.9166711 105 51 C106.26970617 51.98724454 107.56405455 52.94321269 108.875 53.875 C112.33642817 56.36851029 114.89366129 59.03671073 117.5625 62.34375 C118.97806463 63.97472664 120.42551867 65.23690456 122.125 66.5625 C125.15666877 69.13282787 126.85494385 71.67862274 129 75 C130.17376095 76.15070493 131.34757542 77.30135536 132.52172852 78.45166016 C135.57685803 81.65159928 138.23121077 85.19293252 140.9375 88.6875 C141.87553467 89.89732544 141.87553467 89.89732544 142.83251953 91.1315918 C146.99266499 96.55442391 150.6612281 102.0365288 154 108 C155.32676495 110.14990075 156.66059319 112.29545241 158 114.4375 C166.69759495 128.57522564 173.59048122 143.20424094 179.20263672 158.81494141 C180.017221 161.04719166 180.86779402 163.26336376 181.72265625 165.48046875 C197.36662702 206.92470545 200.35283014 253.36984061 194.41015625 296.98291016 C194.03107388 299.77142202 193.68369128 302.56196979 193.34375 305.35546875 C193.1286392 307.00829021 192.90999061 308.66065577 192.6875 310.3125 C192.58405273 311.10462891 192.48060547 311.89675781 192.37402344 312.71289062 C191.69958109 317.21529866 190.61900864 321.2342142 188.984375 325.48828125 C185.12416161 334.82349862 185.12416161 334.82349862 185.94189453 344.49511719 C188.98446738 349.5836471 192.97670627 353.77697972 197.10839844 357.99511719 C199.78083529 360.82759672 201.94575317 363.90790749 204.125 367.125 C204.92165608 368.26109943 205.72115244 369.39521235 206.5234375 370.52734375 C207.12430176 371.37594971 207.12430176 371.37594971 207.73730469 372.24169922 C210.02510038 375.42745029 212.38889085 378.55591149 214.75 381.6875 C219.15919127 387.53771973 223.53302625 393.41219386 227.875 399.3125 C228.46063721 400.10817383 229.04627441 400.90384766 229.6496582 401.72363281 C232.01515839 404.93892607 234.37934329 408.15518344 236.74267578 411.37207031 C243.90153109 421.11522591 251.10248759 430.82398611 258.37011719 440.48632812 C263.43784659 447.23093819 268.44974368 454.01546368 273.43359375 460.82226562 C273.975 461.56025391 274.51640625 462.29824219 275.07421875 463.05859375 C275.77937622 464.02236938 275.77937622 464.02236938 276.4987793 465.00561523 C278.28262504 467.37546982 280.14703229 469.68379037 282 472 C282 425.8 282 379.6 282 332 C319.29 332 356.58 332 395 332 C395 440.57 395 549.14 395 661 C363.98 661 332.96 661 301 661 C286.20365265 641.65093039 286.20365265 641.65093039 281.5625 635.125 C280.48253066 633.61924641 279.40177328 632.11405777 278.3203125 630.609375 C277.77793945 629.85462891 277.23556641 629.09988281 276.67675781 628.32226562 C269.08559965 617.80871052 261.32915258 607.41462048 253.53442383 597.05151367 C247.89693743 589.54819692 242.34135384 581.98478522 236.78222656 574.42333984 C233.85769253 570.4467748 230.92863191 566.47354745 228 562.5 C226.83722295 560.92188726 225.67446255 559.34376224 224.51171875 557.765625 C222.13978949 554.54653084 219.76733593 551.32782394 217.39453125 548.109375 C216.49444336 546.88831055 216.49444336 546.88831055 215.57617188 545.64257812 C214.46173798 544.1307492 213.34717205 542.6190176 212.23242188 541.10742188 C206.80804437 533.74814956 201.40652394 526.37253264 196 519 C196 565.86 196 612.72 196 661 C159.04 661 122.08 661 84 661 C83.67 617.44 83.34 573.88 83 529 C79.04 534.28 75.08 539.56 71 545 C68.96913688 547.67766363 66.93771217 550.3479415 64.875 553 C64.42125 553.59554687 63.9675 554.19109375 63.5 554.8046875 C62.38097998 556.2415357 61.19683155 557.62728998 60 559 C59.34 559 58.68 559 58 559 C57.92136719 559.55171875 57.84273437 560.1034375 57.76171875 560.671875 C56.73187281 563.8195067 54.95748824 565.73493841 52.8125 568.25 C49.52371574 572.15999906 46.36947036 576.09890457 43.38671875 580.24609375 C42 582 42 582 39.94744873 583.65093994 C37.34769437 586.78682693 37.42555547 589.44073972 37.45410156 593.33886719 C37.44376389 594.07096909 37.43342621 594.80307098 37.42277527 595.55735779 C37.39334033 597.97075452 37.39184803 600.38331286 37.390625 602.796875 C37.37564373 604.47269287 37.35891669 606.14849598 37.34051514 607.82427979 C37.29682306 612.23012977 37.27683853 616.63578059 37.26177979 621.04180908 C37.24221531 625.53971137 37.2002446 630.03739835 37.16015625 634.53515625 C37.08483413 643.35670445 37.03455485 652.17820451 37 661 C36.20930618 661.00142502 35.41861237 661.00285004 34.60395813 661.00431824 C27.14409712 661.02216455 19.68492586 661.06382515 12.22536945 661.13209057 C8.39048286 661.16634911 4.55599412 661.19146865 0.72094727 661.19555664 C-2.98174943 661.19984225 -6.68354882 661.22832454 -10.38596535 661.27343178 C-11.79686057 661.28639877 -13.20786323 661.29071721 -14.61881065 661.28615379 C-16.59840848 661.28124337 -18.57800184 661.31022294 -20.55737305 661.34057617 C-21.68322311 661.34723801 -22.80907318 661.35389984 -23.96903992 661.36076355 C-27.93563625 662.19732784 -29.40493352 663.96496252 -32 667 C-32.6084375 667.680625 -33.216875 668.36125 -33.84375 669.0625 C-34.3903125 669.701875 -34.936875 670.34125 -35.5 671 C-38.21487357 674.13705693 -41.06598591 677.06598591 -44 680 C-45.52691935 681.75493931 -47.02647777 683.53135347 -48.52734375 685.30859375 C-50.56978279 687.65441896 -52.80119117 689.80119117 -55 692 C-55.804375 692.99 -56.60875 693.98 -57.4375 695 C-60 698 -60 698 -63 700.4375 C-65.41893811 702.5036763 -66.68676582 703.8313183 -68.375 706.375 C-70.78726637 709.95474144 -73.69946723 712.4470048 -76.984375 715.21484375 C-79.51359219 717.4548675 -81.62855538 719.91371157 -83.80859375 722.48828125 C-87.43268473 726.64209676 -91.23996347 730.62668047 -95.02587891 734.6328125 C-98.1776257 737.98399284 -101.15366357 741.38090255 -104 745 C-105.66666667 746.66666667 -107.33333333 748.33333333 -109 750 C-109.763125 750.94875 -110.52625 751.8975 -111.3125 752.875 C-113.30623313 755.32497927 -115.46619862 757.33285625 -117.875 759.375 C-121.23117572 762.24459263 -124.10055463 765.2699199 -126.953125 768.6328125 C-129.56596774 771.65453521 -132.28034291 774.57454911 -135 777.5 C-138.35903431 781.11383617 -141.67395831 784.74411108 -144.875 788.5 C-147.64834158 791.7154685 -150.73575653 794.27979711 -154 797 C-155.74643605 798.87329581 -157.41086532 800.8026594 -159.07421875 802.75 C-164.17391955 808.70827112 -169.45547698 814.45547698 -175 820 C-175.804375 820.99 -176.60875 821.98 -177.4375 823 C-180 826 -180 826 -182.9375 828.4375 C-185.86502851 830.88706467 -188.14308582 833.39192681 -190.56640625 836.3125 C-192.57537059 838.67727546 -194.80657103 840.80657103 -197 843 C-198.00880944 844.15905765 -199.00835863 845.32622042 -200 846.5 C-202.53200676 849.4894431 -205.19379604 852.26224004 -208 855 C-209.16801463 856.16531714 -210.33459255 857.33207547 -211.5 858.5 C-212.09941406 859.098125 -212.69882813 859.69625 -213.31640625 860.3125 C-214.69961053 861.69891357 -216.07032891 863.09777324 -217.4375 864.5 C-219.52893 866.54041951 -221.65199574 868.42230636 -223.875 870.3125 C-227.4039731 873.36115918 -230.45596514 876.63891346 -233.45703125 880.203125 C-234.91249908 881.8981002 -236.32854272 883.51629545 -238 885 C-238.66 885 -239.32 885 -240 885 C-240.25507324 885.58031982 -240.51014648 886.16063965 -240.77294922 886.75854492 C-242.12736466 889.23265718 -243.63412266 890.87721002 -245.6328125 892.86328125 C-246.35726562 893.58580078 -247.08171875 894.30832031 -247.828125 895.05273438 C-248.58609375 895.79845703 -249.3440625 896.54417969 -250.125 897.3125 C-251.22714844 898.41368164 -251.22714844 898.41368164 -252.3515625 899.53710938 C-256.53186168 903.68428999 -260.81717261 907.64767131 -265.27636719 911.49243164 C-267.3004304 913.26277022 -269.19453822 915.12885166 -271.0625 917.0625 C-274.05217057 920.09906736 -277.14819596 922.89894232 -280.4140625 925.6328125 C-281.8567242 926.87648638 -283.21565229 928.21565229 -284.5625 929.5625 C-287.23536645 932.23536645 -290.09707677 934.58089731 -293 937 C-294.67089498 938.6624276 -296.33696308 940.32971147 -298 942 C-299.97867417 943.91918025 -301.98427416 945.80734963 -304 947.6875 C-304.50789063 948.17283203 -305.01578125 948.65816406 -305.5390625 949.15820312 C-307.8584816 951.31407344 -309.78584335 952.91573666 -312.75 954.08203125 C-315.6328642 955.2581998 -315.64257916 956.27061452 -317 959 C-319.13394389 960.82130964 -321.25574997 962.5153253 -323.5 964.1875 C-328.85059483 968.26702748 -333.91546255 972.50435291 -338.81640625 977.125 C-344.49375 982 -344.49375 982 -348 982 C-348.33 982.99 -348.66 983.98 -349 985 C-350.54711914 986.34692383 -350.54711914 986.34692383 -352.53515625 987.70703125 C-353.26283203 988.21169922 -353.99050781 988.71636719 -354.74023438 989.23632812 C-355.50658203 989.75646484 -356.27292969 990.27660156 -357.0625 990.8125 C-358.55422236 991.83862811 -360.04511076 992.86596966 -361.53515625 993.89453125 C-362.27459473 994.40242187 -363.0140332 994.9103125 -363.77587891 995.43359375 C-366.65695219 997.46267895 -369.4452437 999.60224839 -372.22241211 1001.77075195 C-374.65301301 1003.45157541 -377.14938911 1004.28734728 -380 1005 C-380 1005.66 -380 1006.32 -380 1007 C-385.82903051 1011.46793709 -392.20258718 1015.25506032 -398.66796875 1018.7265625 C-401.42363448 1020.23133139 -404.11314855 1021.83399421 -406.8125 1023.4375 C-411.77814429 1026.34513962 -416.81962154 1028.9965372 -421.98828125 1031.5234375 C-424.0378673 1032.52829292 -426.07671439 1033.55528667 -428.10546875 1034.6015625 C-433.24987075 1037.24874528 -438.21833943 1039.54133668 -443.75 1041.23046875 C-446.29399301 1042.10054969 -448.63946621 1043.21035727 -451.0625 1044.375 C-486.78602267 1060.78318352 -533.72938105 1062.44697209 -570.5234375 1049.08349609 C-579.28362991 1045.82929257 -587.93102602 1042.55027775 -595.7890625 1037.421875 C-598.26774955 1035.82780771 -600.82432811 1034.48648451 -603.4375 1033.125 C-611.84776932 1028.57537691 -619.2249069 1022.8371792 -626.3046875 1016.4453125 C-628.04387815 1014.87325962 -628.04387815 1014.87325962 -630.5 1013.5625 C-633.78601625 1011.50873984 -636.20617057 1008.87219599 -638.90234375 1006.10546875 C-642.10976137 1002.88610544 -645.55976321 999.96572137 -649 997 C-650.77759214 995.46613137 -652.54823208 993.92417575 -654.3125 992.375 C-655.54419922 991.30378906 -655.54419922 991.30378906 -656.80078125 990.2109375 C-659.04042752 987.95935706 -660.41095343 985.73117379 -662 983 C-663.41846465 981.84543575 -664.8387401 980.69292347 -666.2734375 979.55859375 C-669.17485239 976.93944321 -671.45169235 973.83830195 -673.84765625 970.76171875 C-676.10463128 967.86574535 -678.41880191 965.02398241 -680.75 962.1875 C-682.16872597 960.46002252 -683.58548129 958.73092421 -685 957 C-685.74765625 956.10925781 -686.4953125 955.21851563 -687.265625 954.30078125 C-689 952 -689 952 -689 950 C-689.66 950 -690.32 950 -691 950 C-692.25390625 948.57421875 -692.25390625 948.57421875 -693.5625 946.6875 C-694.21412109 945.76517578 -694.21412109 945.76517578 -694.87890625 944.82421875 C-696 943 -696 943 -697 940 C-698.31795293 938.65146167 -699.65326736 937.31979799 -701 936 C-702.16157406 934.46449456 -703.28585328 932.9001998 -704.375 931.3125 C-705.28378906 929.98992187 -705.28378906 929.98992187 -706.2109375 928.640625 C-706.80132813 927.76921875 -707.39171875 926.8978125 -708 926 C-708.76183594 924.87851563 -708.76183594 924.87851563 -709.5390625 923.734375 C-712.84723968 918.8163362 -716.04335893 913.82983103 -719.2109375 908.8203125 C-720.39423736 906.95493586 -721.5868263 905.09541622 -722.7890625 903.2421875 C-726.26600421 897.86594723 -729.44005142 892.41915311 -732.45703125 886.7734375 C-734.60550992 882.91161509 -736.98095883 879.21323583 -739.38671875 875.5078125 C-743.65006396 868.88053011 -743.65006396 868.88053011 -744.9609375 865.58203125 C-746.23370444 862.41925325 -747.89282343 859.62391884 -749.625 856.6875 C-753.75869779 849.5789433 -757.44128896 842.28736215 -761.06054688 834.90673828 C-762.45673497 832.07299892 -763.88755073 829.25686392 -765.3125 826.4375 C-778.63849259 799.75488034 -778.63849259 799.75488034 -783.76171875 786.9375 C-785.3783835 783.10238361 -787.19490959 779.37422491 -789 775.625 C-792.00956322 769.35009544 -794.48370415 763.05327059 -796.72265625 756.45703125 C-798.10980066 752.70283307 -799.75427619 749.15904448 -801.5 745.5625 C-804.41786002 739.52624509 -806.58402877 733.44696909 -808.609375 727.046875 C-810.46356639 721.42794244 -812.86367967 716.02499275 -815.23413086 710.60839844 C-817.18170696 706.12052643 -818.69280704 701.72479383 -820 697 C-821.07256484 693.89700886 -822.22354422 690.82445163 -823.375 687.75 C-823.68445557 686.91388184 -823.99391113 686.07776367 -824.31274414 685.21630859 C-825.63901192 681.6340326 -826.97770391 678.05803447 -828.34765625 674.4921875 C-828.88712891 673.07292969 -828.88712891 673.07292969 -829.4375 671.625 C-829.89962891 670.43777344 -829.89962891 670.43777344 -830.37109375 669.2265625 C-831.07574486 666.73183496 -831.11395001 664.5798283 -831 662 C-832.00160156 661.88785156 -833.00320313 661.77570312 -834.03515625 661.66015625 C-838.02061602 661.08508991 -841.68868233 659.87946148 -845.4375 658.4375 C-846.12416748 658.17501465 -846.81083496 657.9125293 -847.51831055 657.64208984 C-875.12828198 646.81674435 -897.9909436 628.53708156 -910.3125 601.0625 C-916.66948974 585.30209608 -919 569.9236743 -919 553 C-900.85 553 -882.7 553 -864 553 C-865.98 546.07 -867.96 539.14 -870 532 C-871.2578125 525.234375 -871.2578125 525.234375 -871.69384766 522.43261719 C-872.92219755 513.42570982 -872.92219755 513.42570982 -877.59375 505.9375 C-880.63423101 503.74333845 -883.76725905 501.89532793 -887 500 C-905.12385204 484.64946223 -914.39404714 463.39941769 -916.6875 440 C-918.14198003 417.1525429 -915.48826069 391.93845801 -900.8605957 373.26953125 C-898.59754616 369.29278811 -898.71733865 366.47231102 -899.23046875 362.09375 C-899.300345 361.33316284 -899.37022125 360.57257568 -899.44221497 359.78894043 C-899.66955126 357.35670401 -899.92707094 354.92889468 -900.1875 352.5 C-900.50225937 349.34457808 -900.80532539 346.18809313 -901.10546875 343.03125 C-901.18309952 342.22141663 -901.26073029 341.41158325 -901.3407135 340.57720947 C-902.97534173 322.98808893 -903.18655443 305.3512086 -903.18530273 287.69726562 C-903.18748929 284.26680066 -903.20574213 280.83665864 -903.22460938 277.40625 C-903.27697775 257.11078587 -902.30037402 236.86223228 -899 216.8125 C-898.64064408 214.54186935 -898.28255806 212.27103733 -897.92578125 210 C-897.76029785 208.95585937 -897.59481445 207.91171875 -897.42431641 206.8359375 C-897.07400902 204.49464256 -896.77739748 202.16747013 -896.54296875 199.8125 C-895.51492692 189.69024194 -892.63155652 180.3059472 -889.65625 170.6015625 C-888.59833532 167.13745088 -887.68316966 163.70741498 -886.953125 160.16015625 C-886.16628491 156.43766913 -884.93491591 153.24121329 -883.25 149.8125 C-881.02312359 145.1969886 -878.98791805 140.56152039 -877.0625 135.8125 C-874.76822777 130.38473491 -872.04818187 125.82566146 -868.53125 121.11328125 C-866.67861213 118.55645194 -865.38304085 115.83194079 -864 113 C-861.9375 110.125 -861.9375 110.125 -860 108 C-859.34 108 -858.68 108 -858 108 C-857.814375 107.319375 -857.62875 106.63875 -857.4375 105.9375 C-855.406193 101.78656831 -852.32353261 99.14860984 -849 96 C-848.236875 95.175 -847.47375 94.35 -846.6875 93.5 C-827.57087689 75.71709478 -802.15095714 68.3399 -776.75 65.6875 C-776.03255615 65.61120361 -775.3151123 65.53490723 -774.57592773 65.45629883 C-759.30603098 64.11583097 -743.87690069 65.09193995 -728.625 66.1875 C-727.71600952 66.25146973 -726.80701904 66.31543945 -725.8704834 66.38134766 C-709.98596563 67.52414872 -694.58171273 69.64199597 -679 73 C-678.27087402 73.15500977 -677.54174805 73.31001953 -676.79052734 73.46972656 C-673.95565209 74.07490054 -671.12485411 74.69538421 -668.296875 75.33203125 C-664.27861574 76.14615724 -660.24348779 76.72187507 -656.1875 77.3125 C-647.36967546 78.6098247 -638.78337588 80.62219606 -630.1550293 82.84301758 C-624.84157135 84.1853877 -619.61529466 85.2458016 -614.1796875 85.96484375 C-606.6312953 86.97375384 -599.32769514 88.68566344 -591.9375 90.5 C-583.79541651 92.49278848 -575.74479435 94.27269152 -567.44604492 95.46337891 C-563.50566741 96.0769779 -559.60755079 96.83198619 -555.69921875 97.62109375 C-554.97603455 97.76686356 -554.25285034 97.91263336 -553.50775146 98.06282043 C-552.00839581 98.36537551 -550.50907803 98.66811836 -549.00979614 98.97103882 C-535.203044 101.74429146 -521.46266184 104.16089647 -507.44873047 105.63330078 C-504.0796927 105.99152637 -500.71354469 106.37001521 -497.34733582 106.75367737 C-494.08620646 107.12461985 -490.82442864 107.48961356 -487.56246948 107.85317993 C-485.97326903 108.03040331 -484.38417235 108.2085606 -482.79519653 108.38778687 C-467.2489799 110.13059333 -451.65613316 111.37470454 -436 111 C-435.1838623 110.98211426 -434.36772461 110.96422852 -433.52685547 110.94580078 C-407.44969755 110.31135386 -382.42360715 106.76217009 -357 101 C-355.65651563 100.70119726 -354.31292661 100.40286469 -352.96923828 100.10498047 C-334.22450786 95.93076715 -316.27249691 90.68035272 -298.21582031 84.12084961 C-294.95775975 82.98527748 -291.68110815 81.97440341 -288.375 80.98828125 C-282.3301301 79.16243549 -276.55812918 76.90470674 -270.75 74.4375 C-260.49640816 70.11221724 -260.49640816 70.11221724 -255.4765625 68.5 C-250.37807295 66.85417774 -245.52529431 64.71777168 -240.625 62.5625 C-229.51965014 57.73508807 -229.51965014 57.73508807 -224.5 56 C-218.24012223 53.82394725 -212.20240915 51.12711375 -206.12353516 48.49707031 C-199.69709026 45.71825225 -193.24111301 43.0261227 -186.75585938 40.38793945 C-182.90998169 38.81483536 -179.13169295 37.1539046 -175.375 35.375 C-170.05547062 32.90117631 -164.56194473 31.13865545 -158.96875 29.40625 C-155.97870786 28.41642718 -153.2121187 27.16981182 -150.375 25.8046875 C-141.37816313 21.65064559 -131.90494849 18.70433864 -122.5 15.625 C-121.4864444 15.29262329 -120.47288879 14.96024658 -119.42861938 14.61779785 C-100.83135538 8.56441244 -82.31861198 3.99064344 -63 1 C-61.81100098 0.81518066 -60.62200195 0.63036133 -59.39697266 0.43994141 C-39.31143382 -2.56219804 -20.10327203 -2.71224657 0 0 Z M-64 24 C-65.16402344 24.22042969 -66.32804687 24.44085937 -67.52734375 24.66796875 C-86.33244746 28.27625768 -104.1374138 33.31844582 -122.10327148 39.9465332 C-124.56778035 40.84281266 -127.03734321 41.68655185 -129.53125 42.49609375 C-135.28861651 44.38700318 -140.91581999 46.61734902 -146.5625 48.8125 C-153.36733614 51.44942182 -160.17080867 54.08070698 -167.02416992 56.58911133 C-172.76887068 58.69235467 -178.18679046 61.01439399 -183.59765625 63.859375 C-186.24681743 65.11718811 -188.88973013 65.99814251 -191.6875 66.875 C-196.35145222 68.35439376 -200.72453222 70.18907575 -205.125 72.3125 C-211.31636487 75.29287734 -217.59597676 77.85793333 -224.01708984 80.29956055 C-229.65119586 82.45025258 -235.20562233 84.75336825 -240.75 87.125 C-247.17258733 89.86121585 -253.61816486 92.37380467 -260.21875 94.65625 C-264.06001248 95.99817576 -267.84733923 97.47176224 -271.64111328 98.94165039 C-279.33126519 101.91868276 -287.00665539 104.76403606 -294.90625 107.13452148 C-298.64032284 108.25596178 -302.3383091 109.44446627 -306.0234375 110.71875 C-315.66518417 114.04985806 -325.16860427 116.91726994 -335.16015625 118.97265625 C-339.80291522 119.93158214 -344.39447952 121.06671945 -348.99487305 122.2097168 C-400.98721978 135.07958193 -453.30222938 135.43379254 -506.21484375 127.92578125 C-510.82869364 127.2762372 -515.42140952 126.74478552 -520.06396484 126.36352539 C-531.60034665 125.40724449 -542.85492665 122.93617677 -554.1730957 120.59838867 C-561.71834899 119.0420526 -569.24020256 117.55458318 -576.875 116.5 C-586.21125421 115.18999156 -595.30196187 112.84881707 -604.42724609 110.51171875 C-610.27340088 109.03663418 -616.01935001 107.78865255 -622 107 C-629.21611598 106.0484298 -636.14351329 104.36657553 -643.1875 102.5625 C-652.04047971 100.36133396 -660.80703024 98.33569002 -669.84106445 97.06274414 C-675.42062784 96.27424272 -680.9284115 95.25575298 -686.45727539 94.16748047 C-729.16694175 85.82629697 -784.18108667 78.26537941 -822.5625 103.75 C-823.21653809 104.18393066 -823.87057617 104.61786133 -824.54443359 105.06494141 C-828.8350881 107.9965845 -832.35929716 111.03070527 -835.5078125 115.2109375 C-837 117 -837 117 -839.46484375 118.90625 C-842.15244875 121.12590529 -843.63399117 123.1580766 -845.4375 126.125 C-846.035625 127.1046875 -846.63375 128.084375 -847.25 129.09375 C-847.8275 130.0528125 -848.405 131.011875 -849 132 C-849.495 132.7734375 -849.99 133.546875 -850.5 134.34375 C-852.08279588 136.85557825 -853.55355311 139.40711002 -855 142 C-855.59425781 143.05960937 -856.18851563 144.11921875 -856.80078125 145.2109375 C-885.00392028 198.56803365 -883.08995537 268.1243235 -880.0625 326.625 C-880.01911499 327.46400848 -879.97572998 328.30301697 -879.93103027 329.16744995 C-879.80494184 331.54169524 -879.67207602 333.91541912 -879.53515625 336.2890625 C-879.47724663 337.33165474 -879.47724663 337.33165474 -879.41816711 338.39530945 C-879.17800764 342.32011404 -878.71631033 346.13394831 -878 350 C-877.175 349.50371094 -876.35 349.00742187 -875.5 348.49609375 C-859.73905149 339.15712984 -843.88381522 333.07723934 -826 329 C-825.22253418 328.81920898 -824.44506836 328.63841797 -823.64404297 328.45214844 C-798.07019387 322.84829477 -766.5187347 323.48243574 -741 329 C-740.20803223 329.16628906 -739.41606445 329.33257812 -738.60009766 329.50390625 C-708.01223917 336.15745855 -678.17111302 351.18150398 -660.8125 378.1875 C-654.60022418 388.84606194 -650.09215896 399.50006604 -647.1875 411.5 C-646.99260986 412.30501953 -646.79771973 413.11003906 -646.59692383 413.93945312 C-644.79686335 421.95523588 -644.03207066 429.74343473 -643 438 C-678.31 438 -713.62 438 -750 438 C-750.33 434.7 -750.66 431.4 -751 428 C-752.83170873 421.21190293 -755.76429436 414.8052261 -761.78125 410.8203125 C-770.7388967 405.95048076 -781.25659975 404.39875196 -791.19140625 406.7578125 C-798.27829846 408.96648811 -803.50215684 411.0750488 -807.3125 417.6875 C-809.67666899 422.88867178 -809.97955626 427.65114204 -808.375 433.13671875 C-804.80654855 441.50027684 -796.92585294 445.43121631 -789 449 C-786.16175119 450.09498658 -783.29013857 451.00743186 -780.375 451.875 C-779.53090576 452.12838135 -778.68681152 452.3817627 -777.81713867 452.64282227 C-770.0694938 454.87008966 -762.22560945 456.42309196 -754.3125 457.9375 C-735.35503506 461.57271924 -716.66721151 466.08088647 -699 474 C-698.30970703 474.30019043 -697.61941406 474.60038086 -696.90820312 474.90966797 C-687.44384564 479.03617813 -679.12581799 483.54204285 -671 490 C-669.4604233 491.12785846 -667.91894133 492.25312376 -666.375 493.375 C-663.12540193 495.74919614 -663.12540193 495.74919614 -662 498 C-661.34 498 -660.68 498 -660 498 C-659.73574219 498.58007812 -659.47148438 499.16015625 -659.19921875 499.7578125 C-657.95090798 502.09178768 -656.52472718 503.86107604 -654.8125 505.875 C-638.73763145 526.33696809 -635.6769552 554.04228297 -638.6875 579.1875 C-641.84957479 598.05015445 -649.68015652 614.42554464 -662 629 C-662.56203125 629.66515625 -663.1240625 630.3303125 -663.703125 631.015625 C-682.47256575 651.30178823 -711.52548086 660.74890139 -738 665 C-739.05106934 665.17950195 -740.10213867 665.35900391 -741.18505859 665.54394531 C-754.41416288 667.5228141 -767.65374104 667.22157997 -781 667.125 C-783.43228797 667.11494654 -785.86457997 667.10582489 -788.296875 667.09765625 C-794.19800622 667.07583862 -800.09898371 667.04254984 -806 667 C-805.53203301 668.58337511 -805.06218166 670.16619336 -804.59155273 671.7487793 C-804.1993882 673.07101753 -804.1993882 673.07101753 -803.79930115 674.41996765 C-802.70641678 677.94764558 -801.40514256 681.37401442 -800.0625 684.8125 C-798.2212721 689.60565375 -796.54264134 694.37280749 -795.125 699.3125 C-793.23381353 705.67949445 -790.68769505 711.68313085 -788.06518555 717.77392578 C-785.87799119 722.86605893 -783.83586829 727.98119267 -781.9375 733.1875 C-779.67335989 739.37516883 -777.14196912 745.40617369 -774.46240234 751.42480469 C-772.91429219 754.90225679 -771.42728735 758.38424306 -770.0625 761.9375 C-767.95227798 767.33637972 -765.41866677 772.52931501 -762.92211914 777.75708008 C-761.14122689 781.50529979 -759.45677085 785.23594211 -758 789.125 C-756.08030374 794.14706254 -753.49715619 798.76047935 -750.92407227 803.46875 C-749.03293889 806.960345 -747.33868412 810.40064047 -745.9375 814.125 C-744.04409752 819.15202492 -741.51644079 823.73490289 -738.92578125 828.43359375 C-736.81340295 832.29489543 -734.87857443 836.23811372 -732.9375 840.1875 C-730.32241295 845.48326994 -727.55740208 850.59583435 -724.4453125 855.62109375 C-721.0237968 861.25272365 -717.91362821 867.09028241 -715 873 C-714.34 873 -713.68 873 -713 873 C-712.86464844 873.53367187 -712.72929688 874.06734375 -712.58984375 874.6171875 C-710.62968275 881.40145732 -707.19260174 886.38422153 -703 892 C-700.92959189 895.0168804 -699.01097149 897.98001622 -697.25 901.1875 C-694.87108369 905.42290395 -691.96941007 909.25445069 -689.0859375 913.15625 C-687.11374967 915.84492554 -685.20565685 918.56783592 -683.3125 921.3125 C-681.39695386 924.07455173 -679.45608281 926.7146511 -677.25 929.25 C-675 932 -675 932 -673.5 935.0625 C-671.76776989 938.45478397 -669.72607118 940.33450817 -667 943 C-665.79532904 944.46521608 -664.60996008 945.94638376 -663.4375 947.4375 C-656.30317587 956.45992503 -648.9523753 965.33409971 -640.66796875 973.328125 C-639.10381692 974.89593995 -637.74068501 976.50950554 -636.375 978.25 C-634.12220023 981.11042573 -634.12220023 981.11042573 -631.0625 982.9375 C-628.37642912 984.74648651 -626.93564295 986.11349402 -624.9375 988.5625 C-622.5275754 991.5079634 -620.32273869 993.10129218 -617 995 C-615.6511875 996.1698884 -614.31924517 997.35936817 -613 998.5625 C-610.14441548 1001.1260361 -607.76254112 1002.94178531 -604 1004 C-604 1004.66 -604 1005.32 -604 1006 C-601.09724966 1008.20684259 -597.93038449 1010.01500937 -594.81005859 1011.89794922 C-592.88711191 1013.0687317 -590.98529727 1014.27017826 -589.08203125 1015.47265625 C-579.99948549 1021.1163667 -571.07930921 1025.20826681 -560.87939453 1028.39160156 C-559.21157199 1028.93150982 -557.56972787 1029.55024482 -555.93359375 1030.1796875 C-536.20330295 1037.69860221 -512.56294976 1036.25361759 -492.19433594 1032.41015625 C-490.15755085 1032.02944876 -488.11406975 1031.6850534 -486.0703125 1031.34375 C-473.25917872 1029.06862265 -461.18999814 1024.71946984 -449.4609375 1019.13671875 C-447.06756924 1018.03121055 -444.65867948 1017.10319596 -442.1875 1016.1875 C-437.24550927 1014.25470235 -432.74002139 1011.66817599 -428.17480469 1008.99291992 C-424.8155864 1007.0260693 -421.44687775 1005.18336006 -417.9375 1003.5 C-408.03608724 998.65497373 -398.95248331 992.38999714 -390 986 C-387.05250397 983.93925066 -384.44694954 982.14898318 -381 981 C-379.65255851 979.6809257 -378.32124583 978.34531224 -377 977 C-375.25379161 975.65491145 -373.48113303 974.34366645 -371.6875 973.0625 C-370.71941406 972.36640625 -369.75132812 971.6703125 -368.75390625 970.953125 C-367.14213875 969.81002748 -365.52664598 968.67208995 -363.90234375 967.546875 C-361.18552278 965.66002791 -358.7811183 963.7811183 -356.4375 961.4375 C-354 959 -354 959 -351.27734375 957.2109375 C-347.65010401 954.76395575 -344.41671472 952.05938085 -341.125 949.1875 C-340.50786133 948.65415039 -339.89072266 948.12080078 -339.25488281 947.57128906 C-336.0704316 944.81567505 -332.90564182 942.03855696 -329.75 939.25 C-326.84641428 936.68984915 -323.84999829 934.27466826 -320.8125 931.875 C-317.30634357 929.09795255 -314.12074143 926.20990547 -311 923 C-309.33333333 921.66666667 -307.66666667 920.33333333 -306 919 C-305.195625 918.195625 -304.39125 917.39125 -303.5625 916.5625 C-301 914 -301 914 -297.9375 911.5 C-295.01430013 909.17773025 -295.01430013 909.17773025 -293.125 906.625 C-291.32109719 904.39664947 -289.66471996 902.77706655 -287.5 900.9375 C-283.25116575 897.31489319 -279.36184419 893.3986261 -275.44799805 889.42382812 C-271.93373456 885.87535847 -268.3027548 882.55689987 -264.42578125 879.40234375 C-262.72964803 877.94662803 -262.72964803 877.94662803 -262 875 C-260.67009412 874.32652202 -259.33620475 873.66089264 -258 873 C-256.08291504 871.07063322 -256.08291504 871.07063322 -254.25 868.8125 C-251.04717713 865.09674833 -247.72182935 861.84177773 -243.95703125 858.703125 C-238.68175126 854.11226257 -234.13344019 848.84095371 -229.5 843.62109375 C-227 841 -227 841 -224.33203125 838.8671875 C-222.23844852 837.19091858 -221.07360635 835.92988826 -219.6875 833.6875 C-217.21424912 830.03241089 -214.21528336 827.44499429 -210.84765625 824.625 C-208.58634408 822.63619268 -206.86281119 820.35956085 -205 818 C-203.54464207 816.80337237 -202.08842497 815.60769643 -200.62109375 814.42578125 C-198.1652136 812.26579027 -196.11534396 809.80204649 -193.9921875 807.3203125 C-191.654653 804.59777232 -189.27352139 801.91897781 -186.875 799.25 C-186.06804688 798.34765625 -185.26109375 797.4453125 -184.4296875 796.515625 C-182 794 -182 794 -179.31640625 791.85546875 C-176.8146094 790.04626412 -176.8146094 790.04626412 -175.0625 787.0625 C-173.15057538 784.22358162 -171.27979116 782.48633408 -168.6171875 780.38671875 C-166.16120719 778.2807453 -164.15551092 775.83933462 -162.05859375 773.3828125 C-159.54872636 770.4776529 -156.96909454 767.64238177 -154.375 764.8125 C-153.69207886 764.06407837 -153.69207886 764.06407837 -152.99536133 763.30053711 C-150.81587746 760.92431897 -148.60217592 758.60275584 -146.3203125 756.32421875 C-143.8905774 753.95988597 -143.8905774 753.95988597 -141.5 751 C-139.13028779 748.15634535 -136.6154087 745.6154087 -134 743 C-132.51907466 741.29909636 -131.06554244 739.57894885 -129.625 737.84375 C-126.77052327 734.60501679 -123.64378284 731.63446766 -120.5703125 728.60546875 C-116.01160161 724.09773386 -111.61600063 719.53309841 -107.4453125 714.6640625 C-105.72122742 712.67903482 -103.85882964 710.85882964 -102 709 C-100.84817847 707.69275196 -99.70302153 706.37961841 -98.5625 705.0625 C-95.82613172 701.9060496 -92.9542151 698.9542151 -90 696 C-89.175 695.01 -88.35 694.02 -87.5 693 C-85.12220054 690.14664065 -82.65541985 687.5950694 -80 685 C-74.41969278 679.5249816 -69.05223527 673.96740444 -64 668 C-63.49082031 667.40703125 -62.98164062 666.8140625 -62.45703125 666.203125 C-60.06613198 663.89193582 -60.06613198 663.89193582 -59 661 C-107.51 661 -156.02 661 -206 661 C-206 552.43 -206 443.86 -206 332 C-127.46 332 -48.92 332 32 332 C32 360.05 32 388.1 32 417 C-9.58 417 -51.16 417 -94 417 C-94 429.21 -94 441.42 -94 454 C-56.38 454 -18.76 454 20 454 C20 481.06 20 508.12 20 536 C-17.62 536 -55.24 536 -94 536 C-94 548.87 -94 561.74 -94 575 C-79.66560423 575.18084933 -65.33196798 575.32757194 -50.99668884 575.41449738 C-44.3399125 575.45622101 -37.68417649 575.51279884 -31.02783203 575.60351562 C-24.60221295 575.69053836 -18.17738366 575.73829565 -11.7512207 575.75901794 C-9.30154997 575.7737822 -6.85192172 575.80261439 -4.40258789 575.84584045 C-0.96666613 575.90405776 2.46600691 575.91190705 5.90234375 575.90820312 C7.4160984 575.95134644 7.4160984 575.95134644 8.96043396 575.99536133 C14.59967912 575.92973315 17.4934589 575.12578877 21.58178711 571.11608887 C24.11102158 568.25884497 26.17821747 565.3614826 28 562 C29.09133546 560.72050326 30.21911797 559.47149979 31.375 558.25 C36.45057222 552.64649417 40.93736675 546.63217104 45.49609375 540.609375 C48.42556402 536.74072924 51.40385032 532.91303107 54.39819336 529.09448242 C60.06853706 521.86284065 65.56216914 514.55550079 70.81640625 507.015625 C72.38334748 504.8516203 73.95086519 502.83590173 75.67578125 500.80859375 C78.00489156 497.99408902 79.40340926 495.26575379 81 492 C81.51591863 491.57736468 82.03183725 491.15472937 82.56338978 490.71928692 C84.728368 488.12831361 84.36874975 486.01447683 84.36076355 482.6789093 C84.36332682 482.03522831 84.3658901 481.39154731 84.36853105 480.72836083 C84.37347934 478.5677586 84.35695979 476.40785249 84.34057617 474.24731445 C84.33973012 472.70009376 84.34020461 471.15287185 84.34190369 469.60565186 C84.34276593 465.40131304 84.32510327 461.19722996 84.30418181 456.99295068 C84.28545307 452.6007162 84.28366758 448.20847613 84.28010559 443.81620789 C84.27077393 435.49704041 84.246145 427.17799093 84.21605712 418.85887545 C84.17628473 407.61853036 84.1600673 396.37815309 84.14255047 385.13775539 C84.11432468 367.42508185 84.05456266 349.71265732 84 332 C110.4 332 136.8 332 164 332 C168.34954947 317.38829871 168.34954947 317.38829871 171.1875 302.625 C171.34694092 301.53050537 171.50638184 300.43601074 171.6706543 299.30834961 C176.65902167 263.50273057 175.06340385 229.49989263 166.57324219 194.43212891 C166.02344682 192.09947921 165.53077826 189.76031467 165.04296875 187.4140625 C164.02984444 182.8315768 162.53380724 178.50978981 160.875 174.125 C160.56643066 173.30475342 160.25786133 172.48450684 159.93994141 171.6394043 C158.97119068 169.08845814 157.98797988 166.54355421 157 164 C156.70351562 163.22833496 156.40703125 162.45666992 156.1015625 161.66162109 C152.18562103 151.57070776 147.56736998 141.96890697 142.4375 132.4375 C141.90753418 131.45048096 141.37756836 130.46346191 140.83154297 129.4465332 C137.28393168 122.98446145 133.3539967 116.9458226 129 111 C128.34076538 110.09664917 128.34076538 110.09664917 127.66821289 109.17504883 C126.55999458 107.67151325 125.43674369 106.17909082 124.3125 104.6875 C123.58675781 103.72199219 122.86101563 102.75648437 122.11328125 101.76171875 C118.53539473 97.08599644 114.81418204 92.58705898 110.91796875 88.17578125 C109.61923865 86.70247644 108.33041831 85.22038685 107.05078125 83.73046875 C102.68694343 78.69790922 98.10808257 74.26711775 93 70 C91.89523083 69.0423613 90.79105291 68.08404003 89.6875 67.125 C86.60437006 64.49547998 83.49513117 61.89799022 80.375 59.3125 C79.02535156 58.19294922 79.02535156 58.19294922 77.6484375 57.05078125 C75.17915924 55.1387295 72.68917997 53.57833848 70 52 C68.47174951 50.90612227 66.95109545 49.80156772 65.4375 48.6875 C59.91575383 44.79027945 54.08162202 41.90923746 48 39 C46.40327805 38.1908295 44.80695956 37.3808626 43.2109375 36.5703125 C9.98071362 19.96759527 -27.78767688 16.81539794 -64 24 Z M-849 521 C-846.85509812 531.846577 -844.02594537 542.36830006 -841 553 C-830.44 553 -819.88 553 -809 553 C-809 556.3 -809 559.6 -809 563 C-808.30096955 565.99835144 -808.30096955 565.99835144 -807.125 568.4375 C-806.77695312 569.24058594 -806.42890625 570.04367187 -806.0703125 570.87109375 C-804.95036797 573.20645439 -804.95036797 573.20645439 -803 576 C-802.34 576 -801.68 576 -801 576 C-801 576.66 -801 577.32 -801 578 C-799.41988154 579.30078949 -799.41988154 579.30078949 -797.375 580.5 C-796.70210937 580.9228125 -796.02921875 581.345625 -795.3359375 581.78125 C-786.08837023 586.60606771 -774.64640267 586.19197687 -764.55859375 584.3828125 C-758.00170097 582.32181421 -753.75174743 578.74560063 -750 573 C-748.29432569 567.88297707 -748.10404886 563.25554134 -750.1171875 558.1875 C-751.34493987 555.74586816 -752.6209854 553.35909998 -754 551 C-754.66 551 -755.32 551 -756 551 C-756 550.34 -756 549.68 -756 549 C-769.30381165 538.75936846 -786.64412994 535.85327593 -802.69140625 532.6640625 C-818.4007865 529.52598379 -833.71263261 525.80099141 -849 521 Z " fill="#131313" transform="translate(1422,2)"/>
<path d="M0 0 C1.45182678 0.00131424 1.45182678 0.00131424 2.9329834 0.00265503 C53.83143503 0.15428217 102.23289891 16.81634467 138.625 53.375 C170.45904787 86.91117293 184.51055112 132.42265062 183.60327148 178.09814453 C182.93131985 196.57284319 180.05504006 215.00688024 173.625 232.375 C173.34672363 233.14763184 173.06844727 233.92026367 172.78173828 234.71630859 C159.20746675 272.04739067 132.75221496 302.62307029 97.625 321.375 C100.03345924 329.78273318 103.59266927 339.91259404 111.625 344.375 C126.83765149 348.99199676 126.83765149 348.99199676 160.625 348.375 C160.625 373.785 160.625 399.195 160.625 425.375 C146.1153125 425.436875 146.1153125 425.436875 131.3125 425.5 C128.30084717 425.51820801 125.28919434 425.53641602 122.1862793 425.55517578 C86.61579448 425.6829722 86.61579448 425.6829722 70.5625 421 C69.77214355 420.77868408 68.98178711 420.55736816 68.16748047 420.3293457 C52.70529458 415.90633751 40.22208921 408.62191067 28.625 397.375 C27.70654297 396.56675781 27.70654297 396.56675781 26.76953125 395.7421875 C13.06716236 383.26268448 4.80193099 362.47795968 -1.375 345.375 C-1.375 344.715 -1.375 344.055 -1.375 343.375 C-2.60089844 343.42140625 -3.82679688 343.4678125 -5.08984375 343.515625 C-52.24731099 344.73181325 -98.5086671 327.20114318 -132.734375 294.88671875 C-134.04148437 293.64341797 -134.04148437 293.64341797 -135.375 292.375 C-136.34179688 291.48748047 -136.34179688 291.48748047 -137.328125 290.58203125 C-147.31411042 281.13267589 -154.74756584 269.31466126 -161.375 257.375 C-161.72304688 256.75286621 -162.07109375 256.13073242 -162.4296875 255.48974609 C-175.98844363 230.90175742 -180.8760112 204.13405182 -182.375 176.375 C-182.41641113 175.63830078 -182.45782227 174.90160156 -182.50048828 174.14257812 C-184.33234578 136.40079054 -171.83069853 95.98377132 -148.375 66.375 C-147.69050781 65.488125 -147.00601563 64.60125 -146.30078125 63.6875 C-137.02032036 51.95779718 -126.56064346 42.0149396 -114.375 33.375 C-113.34375 32.63765625 -112.3125 31.9003125 -111.25 31.140625 C-92.1160478 18.17001317 -70.64310584 9.8741408 -48.25 4.625 C-47.40429443 4.42600098 -46.55858887 4.22700195 -45.68725586 4.02197266 C-30.49428109 0.65922627 -15.49982968 -0.03436806 0 0 Z M-50.375 125.375 C-63.57330665 141.54939541 -67.59707633 159.91945708 -66.375 180.375 C-64.21050435 197.2478401 -56.82241793 214.46987998 -43.375 225.375 C-35.85240116 230.69253096 -28.23642822 234.82398279 -19.375 237.375 C-18.64796875 237.59929687 -17.9209375 237.82359375 -17.171875 238.0546875 C0.17634127 242.48272871 20.13289371 239.68295064 35.75390625 231.18359375 C52.16679423 220.84459085 61.80980867 206.45565181 66.4375 187.625 C70.21806911 168.16366127 66.92438882 148.43958021 56.20703125 131.64453125 C46.25778135 117.3716567 30.98404012 107.95816679 13.90771484 104.70458984 C-10.24475086 101.21733544 -33.49928711 107.19882895 -50.375 125.375 Z " fill="#131313" transform="translate(992.375,326.625)"/>
<path d="M0 0 C91.43829787 0 91.43829787 0 95.8671875 2.8359375 C96.52976562 3.67382812 97.19234375 4.51171875 97.875 5.375 C98.68195313 6.37273437 99.48890625 7.37046875 100.3203125 8.3984375 C101.2175881 9.59593703 102.11050364 10.79671083 103 12 C103.77682129 13.02722168 103.77682129 13.02722168 104.56933594 14.07519531 C108.16884592 18.83882003 111.68878688 23.65672751 115.18554688 28.49609375 C118.09853822 32.51595909 121.05053152 36.50686708 124 40.5 C125.16819662 42.08446744 126.33616512 43.66910309 127.50390625 45.25390625 C128.37039795 46.42977295 128.37039795 46.42977295 129.25439453 47.62939453 C130.99271607 49.99010812 132.72903448 52.35228247 134.46484375 54.71484375 C140.43743304 62.83971746 146.44087274 70.93940618 152.5 79 C160.34394362 89.43497532 168.08825731 99.94172219 175.81005859 110.46728516 C177.02962827 112.12956417 178.24976353 113.79142838 179.47045898 115.45288086 C180.60016253 116.99051138 181.72871718 118.5289872 182.85571289 120.06860352 C187.80154565 126.79835272 192.90315021 133.37409528 198 140 C198 93.8 198 47.6 198 0 C235.29 0 272.58 0 311 0 C311 108.57 311 217.14 311 329 C279.98 329 248.96 329 217 329 C202.20365265 309.65093039 202.20365265 309.65093039 197.5625 303.125 C196.48253066 301.61924641 195.40177328 300.11405777 194.3203125 298.609375 C193.77793945 297.85462891 193.23556641 297.09988281 192.67675781 296.32226562 C185.08559965 285.80871052 177.32915258 275.41462048 169.53442383 265.05151367 C163.89693743 257.54819692 158.34135384 249.98478522 152.78222656 242.42333984 C149.85769253 238.4467748 146.92863191 234.47354745 144 230.5 C142.83722295 228.92188726 141.67446255 227.34376224 140.51171875 225.765625 C138.13978949 222.54653084 135.76733593 219.32782394 133.39453125 216.109375 C132.49444336 214.88831055 132.49444336 214.88831055 131.57617188 213.64257812 C130.46173798 212.1307492 129.34717205 210.6190176 128.23242188 209.10742188 C122.80804437 201.74814956 117.40652394 194.37253264 112 187 C112 233.86 112 280.72 112 329 C75.04 329 38.08 329 0 329 C0 220.43 0 111.86 0 0 Z " fill="#131313" transform="translate(1506,334)"/>
<path d="M0 0 C29.865 -0.04125 59.73 -0.0825 90.5 -0.125 C99.90822266 -0.14320801 109.31644531 -0.16141602 119.00976562 -0.18017578 C130.55371094 -0.18920898 130.55371094 -0.18920898 135.96862793 -0.19088745 C139.7271158 -0.19274062 143.4855464 -0.20019501 147.24401855 -0.21115112 C152.05572189 -0.22498909 156.86734336 -0.22896037 161.67906475 -0.22614455 C163.43399866 -0.22673234 165.18893577 -0.23062668 166.94385242 -0.23843026 C181.11708673 -0.29846647 195.01510128 0.59033861 208.8125 4.125 C210.05616333 4.44259277 210.05616333 4.44259277 211.32495117 4.76660156 C228.98662801 9.51736378 248.73792502 18.02544968 262 31 C262 31.66 262 32.32 262 33 C263.32 33.66 264.64 34.32 266 35 C266 35.66 266 36.32 266 37 C266.57234375 37.22171875 267.1446875 37.4434375 267.734375 37.671875 C280.62411704 45.22793068 288.95380429 67.19515209 293 81 C302.0193713 115.60594061 300.73605032 154.20636057 282.41650391 185.65478516 C279.06450591 191.15012116 275.2097264 196.13396881 271 201 C270.236875 202.010625 269.47375 203.02125 268.6875 204.0625 C265.31077767 207.75333603 261.54025642 210.75319534 257.62109375 213.8515625 C255.2558667 215.7902732 253.14228532 217.82324898 251 220 C251.41745232 220.83352194 251.41745232 220.83352194 251.84333801 221.68388271 C258.60523685 235.18562574 265.36493871 248.68846616 272.12217712 262.19254208 C275.38993718 268.72289911 278.65844823 275.25287825 281.92871094 281.78198242 C284.77803948 287.47069306 287.62597572 293.1600981 290.47222042 298.85035235 C291.98025854 301.86512141 293.48900631 304.87953067 294.99942017 307.89311028 C296.68244693 311.25195867 298.36300984 314.61202851 300.04296875 317.97241211 C300.54790863 318.97869659 301.05284851 319.98498108 301.5730896 321.02175903 C302.02745392 321.93186234 302.48181824 322.84196564 302.94995117 323.77964783 C303.34816574 324.57515517 303.74638031 325.37066252 304.15666199 326.19027615 C305 328 305 328 305 329 C263.09 329 221.18 329 178 329 C170.14130922 311.46907441 162.29068106 293.93601133 154.5 276.375 C152.80265013 272.54922729 151.10463905 268.72374898 149.40625 264.8984375 C149.01324707 264.01210632 148.62024414 263.12577515 148.21533203 262.21258545 C145.78245906 256.73326768 143.31025087 251.2758531 140.75976562 245.85009766 C140 244 140 244 140 242 C131.42 242 122.84 242 114 242 C114 270.71 114 299.42 114 329 C76.38 329 38.76 329 0 329 C0 220.43 0 111.86 0 0 Z M112 88 C112 111.1 112 134.2 112 158 C144.60235983 160.15808949 144.60235983 160.15808949 174.15625 148.1796875 C181.84565108 140.13188214 183.59618397 131.48076405 183.47290039 120.69067383 C183.12977857 111.81135066 180.9590015 104.03363498 174.68359375 97.4921875 C162.4442963 86.6443647 147.70566763 87.61158814 132.3125 87.8125 C125.609375 87.874375 118.90625 87.93625 112 88 Z " fill="#131313" transform="translate(0,334)"/>
<path d="M0 0 C78.54 0 157.08 0 238 0 C238 28.05 238 56.1 238 85 C196.42 85 154.84 85 112 85 C112 97.21 112 109.42 112 122 C149.62 122 187.24 122 226 122 C226 149.06 226 176.12 226 204 C188.38 204 150.76 204 112 204 C112 216.87 112 229.74 112 243 C148.96 243 185.92 243 224 243 C221.43047547 246.85428679 219.35494845 249.8899196 216.3125 253.1875 C213.28753858 256.52616112 210.39381782 259.93300172 207.5625 263.4375 C203.87508588 267.98171431 200.04176434 272.3543461 196.10546875 276.68359375 C192.11389307 281.07506755 188.22204901 285.55037202 184.390625 290.08203125 C178.3941524 297.15827409 172.23935512 304.03738371 165.88305664 310.79272461 C160.34106808 316.68337359 155.05394234 322.68257207 150 329 C100.5 329 51 329 0 329 C0 220.43 0 111.86 0 0 Z " fill="#131313" transform="translate(1216,334)"/>
<path d="M0 0 C0.77263184 0.10183594 1.54526367 0.20367187 2.34130859 0.30859375 C14.38055773 1.94583057 25.46316904 4.76189459 36.6640625 9.57421875 C39.18336749 10.65097088 41.57063888 11.54467847 44.1875 12.3125 C53.15010753 15.25477015 61.34301752 20.12720454 69.5625 24.6875 C70.25351807 25.06793457 70.94453613 25.44836914 71.65649414 25.84033203 C76.64849542 28.64682663 76.64849542 28.64682663 78.54272461 30.55004883 C80.03952516 32.20393303 80.03952516 32.20393303 82.6875 33.25 C86.34745368 35.18356043 88.94140097 37.52901197 91.98046875 40.30078125 C93.84742245 41.87162238 95.59795086 42.99598065 97.75 44.125 C101.18899847 46.10903758 102.57738444 47.9166711 105 51 C106.26970617 51.98724454 107.56405455 52.94321269 108.875 53.875 C112.33642817 56.36851029 114.89366129 59.03671073 117.5625 62.34375 C118.97806463 63.97472664 120.42551867 65.23690456 122.125 66.5625 C125.15666877 69.13282787 126.85494385 71.67862274 129 75 C130.17376095 76.15070493 131.34757542 77.30135536 132.52172852 78.45166016 C135.57685803 81.65159928 138.23121077 85.19293252 140.9375 88.6875 C141.87553467 89.89732544 141.87553467 89.89732544 142.83251953 91.1315918 C146.99266499 96.55442391 150.6612281 102.0365288 154 108 C155.32676495 110.14990075 156.66059319 112.29545241 158 114.4375 C166.69759495 128.57522564 173.59048122 143.20424094 179.20263672 158.81494141 C180.017221 161.04719166 180.86779402 163.26336376 181.72265625 165.48046875 C197.3659525 206.92291849 200.35349203 253.36728148 194.41015625 296.97851562 C194.0298466 299.78013004 193.68283188 302.58378053 193.34375 305.390625 C191.77972752 317.63151885 188.67675557 329.23295502 185 341 C182.10776767 339.7257583 181.15077144 339.25756788 179.5 336.4375 C175.4582948 332.49683743 170.44076732 333.09410132 165 333 C163.61963297 328.8588989 165.02997019 325.80377593 166.1875 321.75 C177.3291589 279.88674025 175.68590625 236.20147654 165.57324219 194.43212891 C165.02344682 192.09947921 164.53077826 189.76031467 164.04296875 187.4140625 C163.02984444 182.8315768 161.53380724 178.50978981 159.875 174.125 C159.56643066 173.30475342 159.25786133 172.48450684 158.93994141 171.6394043 C157.97119068 169.08845814 156.98797988 166.54355421 156 164 C155.70351562 163.22833496 155.40703125 162.45666992 155.1015625 161.66162109 C151.18562103 151.57070776 146.56736998 141.96890697 141.4375 132.4375 C140.90753418 131.45048096 140.37756836 130.46346191 139.83154297 129.4465332 C136.28393168 122.98446145 132.3539967 116.9458226 128 111 C127.56051025 110.39776611 127.12102051 109.79553223 126.66821289 109.17504883 C125.55999458 107.67151325 124.43674369 106.17909082 123.3125 104.6875 C122.58675781 103.72199219 121.86101562 102.75648437 121.11328125 101.76171875 C117.51586797 97.06047811 113.7694916 92.5441373 109.8515625 88.109375 C108.64559331 86.73548605 107.45212832 85.35048697 106.2734375 83.953125 C102.19917475 79.1533086 97.82019215 75.04087965 93 71 C91.89540056 70.04216552 90.79122368 69.08384349 89.6875 68.125 C86.60437006 65.49547998 83.49513117 62.89799022 80.375 60.3125 C79.02535156 59.19294922 79.02535156 59.19294922 77.6484375 58.05078125 C75.17915924 56.1387295 72.68917997 54.57833848 70 53 C68.47174951 51.90612227 66.95109545 50.80156772 65.4375 49.6875 C59.91575383 45.79027945 54.08162202 42.90923746 48 40 C46.40327805 39.1908295 44.80695956 38.3808626 43.2109375 37.5703125 C9.98071362 20.96759527 -27.78767688 17.81539794 -64 25 C-65.16402344 25.22042969 -66.32804687 25.44085937 -67.52734375 25.66796875 C-86.33244746 29.27625768 -104.1374138 34.31844582 -122.10327148 40.9465332 C-124.56778035 41.84281266 -127.03734321 42.68655185 -129.53125 43.49609375 C-135.28861651 45.38700318 -140.91581999 47.61734902 -146.5625 49.8125 C-153.36733614 52.44942182 -160.17080867 55.08070698 -167.02416992 57.58911133 C-172.76887068 59.69235467 -178.18679046 62.01439399 -183.59765625 64.859375 C-186.24681743 66.11718811 -188.88973013 66.99814251 -191.6875 67.875 C-196.35145222 69.35439376 -200.72453222 71.18907575 -205.125 73.3125 C-211.31636487 76.29287734 -217.59597676 78.85793333 -224.01708984 81.29956055 C-229.65119586 83.45025258 -235.20562233 85.75336825 -240.75 88.125 C-247.17258733 90.86121585 -253.61816486 93.37380467 -260.21875 95.65625 C-264.06001248 96.99817576 -267.84733923 98.47176224 -271.64111328 99.94165039 C-279.33126519 102.91868276 -287.00665539 105.76403606 -294.90625 108.13452148 C-298.64032284 109.25596178 -302.3383091 110.44446627 -306.0234375 111.71875 C-315.66518417 115.04985806 -325.16860427 117.91726994 -335.16015625 119.97265625 C-339.80291522 120.93158214 -344.39447952 122.06671945 -348.99487305 123.2097168 C-400.98721978 136.07958193 -453.30222938 136.43379254 -506.21484375 128.92578125 C-510.82869364 128.2762372 -515.42140952 127.74478552 -520.06396484 127.36352539 C-531.60034665 126.40724449 -542.85492665 123.93617677 -554.1730957 121.59838867 C-561.71834899 120.0420526 -569.24020256 118.55458318 -576.875 117.5 C-586.21125421 116.18999156 -595.30196187 113.84881707 -604.42724609 111.51171875 C-610.27340088 110.03663418 -616.01935001 108.78865255 -622 108 C-629.21611598 107.0484298 -636.14351329 105.36657553 -643.1875 103.5625 C-652.04047971 101.36133396 -660.80703024 99.33569002 -669.84106445 98.06274414 C-675.42062784 97.27424272 -680.9284115 96.25575298 -686.45727539 95.16748047 C-730.79560023 86.50822051 -784.93900249 79.74645614 -824.54443359 106.06713867 C-828.80402138 108.98128498 -832.34336031 111.9923421 -835.5078125 116.11328125 C-837 118 -837 118 -839.38671875 120.32421875 C-879.88015716 161.78611009 -880.88011794 239.64863734 -880.2578125 293.37890625 C-880.04455976 307.32623329 -879.37914468 321.25711374 -878.6875 335.1875 C-878.62873688 336.41690308 -878.56997375 337.64630615 -878.50942993 338.91296387 C-877.80349534 353.37222644 -876.61547323 367.5712847 -874.33169556 381.86825562 C-873.59806687 386.58314797 -873.06500758 391.3250958 -872.5 396.0625 C-871.47218588 404.50722441 -870.29338098 412.91534614 -868.984375 421.32080078 C-868.33835982 425.52591291 -867.80595416 429.69085626 -867.5 433.9375 C-867.11829569 438.80235888 -866.04354109 443.36068195 -864.8828125 448.09375 C-863.73592164 452.96091664 -862.92372085 457.88848133 -862.0625 462.8125 C-860.67959047 470.64215981 -859.01339234 478.30149945 -857.0078125 485.9921875 C-855.83036546 490.57063618 -854.8447104 495.18622988 -853.875 499.8125 C-853.70629395 500.6171167 -853.53758789 501.4217334 -853.36376953 502.25073242 C-852.28378427 507.47102081 -851.30917972 512.69998386 -850.4921875 517.96875 C-850.05170963 520.29418981 -850.05170963 520.29418981 -848 523 C-846.57820505 527.42453807 -845.47505354 531.93872068 -844.3125 536.4375 C-843.97927734 537.67822266 -843.64605469 538.91894531 -843.30273438 540.19726562 C-842.99271484 541.38900391 -842.68269531 542.58074219 -842.36328125 543.80859375 C-842.07751221 544.89970459 -841.79174316 545.99081543 -841.49731445 547.11499023 C-841 550 -841 550 -842 554 C-848.93 554 -855.86 554 -863 554 C-866.37684999 546.12068335 -866.37684999 546.12068335 -867.24609375 542.57421875 C-867.44082275 541.78635986 -867.63555176 540.99850098 -867.83618164 540.18676758 C-868.0346167 539.36200928 -868.23305176 538.53725098 -868.4375 537.6875 C-868.65720459 536.81955811 -868.87690918 535.95161621 -869.10327148 535.05737305 C-870.18319323 530.7223429 -871.12954071 526.42748782 -871.7890625 522.0078125 C-873.01602656 513.42141938 -873.01602656 513.42141938 -877.53125 506.265625 C-879.56273725 504.78913169 -881.64642187 503.38208189 -883.7734375 502.046875 C-900.66118496 491.33358242 -910.45612005 471.75962621 -914.8125 452.8125 C-919.90220293 426.13646876 -916.76148783 399.58088279 -903 376 C-901.94099487 374.64841797 -901.94099487 374.64841797 -900.8605957 373.26953125 C-898.59754616 369.29278811 -898.71733865 366.47231102 -899.23046875 362.09375 C-899.300345 361.33316284 -899.37022125 360.57257568 -899.44221497 359.78894043 C-899.66955126 357.35670401 -899.92707094 354.92889468 -900.1875 352.5 C-900.50225937 349.34457808 -900.80532539 346.18809313 -901.10546875 343.03125 C-901.18309952 342.22141663 -901.26073029 341.41158325 -901.3407135 340.57720947 C-902.97534173 322.98808893 -903.18655443 305.3512086 -903.18530273 287.69726562 C-903.18748929 284.26680066 -903.20574213 280.83665864 -903.22460938 277.40625 C-903.27697775 257.11078587 -902.30037402 236.86223228 -899 216.8125 C-898.64064408 214.54186935 -898.28255806 212.27103733 -897.92578125 210 C-897.76029785 208.95585937 -897.59481445 207.91171875 -897.42431641 206.8359375 C-897.07400902 204.49464256 -896.77739748 202.16747013 -896.54296875 199.8125 C-895.51492692 189.69024194 -892.63155652 180.3059472 -889.65625 170.6015625 C-888.59833532 167.13745088 -887.68316966 163.70741498 -886.953125 160.16015625 C-886.16628491 156.43766913 -884.93491591 153.24121329 -883.25 149.8125 C-881.02312359 145.1969886 -878.98791805 140.56152039 -877.0625 135.8125 C-874.76822777 130.38473491 -872.04818187 125.82566146 -868.53125 121.11328125 C-866.67861213 118.55645194 -865.38304085 115.83194079 -864 113 C-861.9375 110.125 -861.9375 110.125 -860 108 C-859.34 108 -858.68 108 -858 108 C-857.814375 107.319375 -857.62875 106.63875 -857.4375 105.9375 C-855.406193 101.78656831 -852.32353261 99.14860984 -849 96 C-848.236875 95.175 -847.47375 94.35 -846.6875 93.5 C-827.57087689 75.71709478 -802.15095714 68.3399 -776.75 65.6875 C-776.03255615 65.61120361 -775.3151123 65.53490723 -774.57592773 65.45629883 C-759.30603098 64.11583097 -743.87690069 65.09193995 -728.625 66.1875 C-727.71600952 66.25146973 -726.80701904 66.31543945 -725.8704834 66.38134766 C-709.98596563 67.52414872 -694.58171273 69.64199597 -679 73 C-678.27087402 73.15500977 -677.54174805 73.31001953 -676.79052734 73.46972656 C-673.95565209 74.07490054 -671.12485411 74.69538421 -668.296875 75.33203125 C-664.27861574 76.14615724 -660.24348779 76.72187507 -656.1875 77.3125 C-647.36967546 78.6098247 -638.78337588 80.62219606 -630.1550293 82.84301758 C-624.84157135 84.1853877 -619.61529466 85.2458016 -614.1796875 85.96484375 C-606.6312953 86.97375384 -599.32769514 88.68566344 -591.9375 90.5 C-583.79541651 92.49278848 -575.74479435 94.27269152 -567.44604492 95.46337891 C-563.50566741 96.0769779 -559.60755079 96.83198619 -555.69921875 97.62109375 C-554.97603455 97.76686356 -554.25285034 97.91263336 -553.50775146 98.06282043 C-552.00839581 98.36537551 -550.50907803 98.66811836 -549.00979614 98.97103882 C-535.203044 101.74429146 -521.46266184 104.16089647 -507.44873047 105.63330078 C-504.0796927 105.99152637 -500.71354469 106.37001521 -497.34733582 106.75367737 C-494.08620646 107.12461985 -490.82442864 107.48961356 -487.56246948 107.85317993 C-485.97326903 108.03040331 -484.38417235 108.2085606 -482.79519653 108.38778687 C-467.2489799 110.13059333 -451.65613316 111.37470454 -436 111 C-435.1838623 110.98211426 -434.36772461 110.96422852 -433.52685547 110.94580078 C-407.44969755 110.31135386 -382.42360715 106.76217009 -357 101 C-355.65651563 100.70119726 -354.31292661 100.40286469 -352.96923828 100.10498047 C-334.22450786 95.93076715 -316.27249691 90.68035272 -298.21582031 84.12084961 C-294.95775975 82.98527748 -291.68110815 81.97440341 -288.375 80.98828125 C-282.3301301 79.16243549 -276.55812918 76.90470674 -270.75 74.4375 C-260.49640816 70.11221724 -260.49640816 70.11221724 -255.4765625 68.5 C-250.37807295 66.85417774 -245.52529431 64.71777168 -240.625 62.5625 C-229.51965014 57.73508807 -229.51965014 57.73508807 -224.5 56 C-218.24012223 53.82394725 -212.20240915 51.12711375 -206.12353516 48.49707031 C-199.69709026 45.71825225 -193.24111301 43.0261227 -186.75585938 40.38793945 C-182.90998169 38.81483536 -179.13169295 37.1539046 -175.375 35.375 C-170.05547062 32.90117631 -164.56194473 31.13865545 -158.96875 29.40625 C-155.97870786 28.41642718 -153.2121187 27.16981182 -150.375 25.8046875 C-141.37816313 21.65064559 -131.90494849 18.70433864 -122.5 15.625 C-121.4864444 15.29262329 -120.47288879 14.96024658 -119.42861938 14.61779785 C-100.83135538 8.56441244 -82.31861198 3.99064344 -63 1 C-61.81100098 0.81518066 -60.62200195 0.63036133 -59.39697266 0.43994141 C-39.31143382 -2.56219804 -20.10327203 -2.71224657 0 0 Z " fill="#8D3FDC" transform="translate(1422,2)"/>
<path d="M0 0 C37.95 0 75.9 0 115 0 C115 108.57 115 217.14 115 329 C77.05 329 39.1 329 0 329 C0 220.43 0 111.86 0 0 Z " fill="#131313" transform="translate(347,334)"/>
<path d="M0 0 C0.66 0 1.32 0 2 0 C2.17479432 4.92535818 2.30087066 9.84886083 2.38452148 14.77661133 C2.41943575 16.44783015 2.46698763 18.11883977 2.52807617 19.78930664 C2.92295254 30.87570957 2.40646819 38.15522417 -5 47 C-6.20334221 48.61084533 -7.40519849 50.2228019 -8.60546875 51.8359375 C-9.79442831 53.35293061 -10.98840912 54.86600232 -12.1875 56.375 C-12.79013672 57.14199219 -13.39277344 57.90898438 -14.01367188 58.69921875 C-15.16429572 60.16181196 -16.31882568 61.62134432 -17.47802734 63.07714844 C-18.77384561 64.71427783 -20.04052077 66.37440604 -21.30078125 68.0390625 C-21.86152344 68.68617188 -22.42226562 69.33328125 -23 70 C-23.66 70 -24.32 70 -25 70 C-25.11794922 70.82757812 -25.11794922 70.82757812 -25.23828125 71.671875 C-26.26812719 74.8195067 -28.04251176 76.73493841 -30.1875 79.25 C-33.47628426 83.15999906 -36.63052964 87.09890457 -39.61328125 91.24609375 C-41 93 -41 93 -43.05255127 94.65093994 C-45.65230563 97.78682693 -45.57444453 100.44073972 -45.54589844 104.33886719 C-45.55623611 105.07096909 -45.56657379 105.80307098 -45.57722473 106.55735779 C-45.60665967 108.97075452 -45.60815197 111.38331286 -45.609375 113.796875 C-45.62435627 115.47269287 -45.64108331 117.14849598 -45.65948486 118.82427979 C-45.70317694 123.23012977 -45.72316147 127.63578059 -45.73822021 132.04180908 C-45.75778469 136.53971137 -45.7997554 141.03739835 -45.83984375 145.53515625 C-45.91516587 154.35670445 -45.96544515 163.17820451 -46 172 C-46.79069382 172.00142502 -47.58138763 172.00285004 -48.39604187 172.00431824 C-55.85590288 172.02216455 -63.31507414 172.06382515 -70.77463055 172.13209057 C-74.60951714 172.16634911 -78.44400588 172.19146865 -82.27905273 172.19555664 C-85.98174943 172.19984225 -89.68354882 172.22832454 -93.38596535 172.27343178 C-94.79686057 172.28639877 -96.20786323 172.29071721 -97.61881065 172.28615379 C-99.59840848 172.28124337 -101.57800184 172.31022294 -103.55737305 172.34057617 C-104.68322311 172.34723801 -105.80907318 172.35389984 -106.96903992 172.36076355 C-110.93563625 173.19732784 -112.40493352 174.96496252 -115 178 C-115.6084375 178.680625 -116.216875 179.36125 -116.84375 180.0625 C-117.3903125 180.701875 -117.936875 181.34125 -118.5 182 C-121.21487357 185.13705693 -124.06598591 188.06598591 -127 191 C-128.52691935 192.75493931 -130.02647777 194.53135347 -131.52734375 196.30859375 C-133.56978279 198.65441896 -135.80119117 200.80119117 -138 203 C-138.804375 203.99 -139.60875 204.98 -140.4375 206 C-143 209 -143 209 -146 211.4375 C-148.41893811 213.5036763 -149.68676582 214.8313183 -151.375 217.375 C-153.78726637 220.95474144 -156.69946723 223.4470048 -159.984375 226.21484375 C-162.51359219 228.4548675 -164.62855538 230.91371157 -166.80859375 233.48828125 C-170.43268473 237.64209676 -174.23996347 241.62668047 -178.02587891 245.6328125 C-181.1776257 248.98399284 -184.15366357 252.38090255 -187 256 C-188.66666667 257.66666667 -190.33333333 259.33333333 -192 261 C-192.763125 261.94875 -193.52625 262.8975 -194.3125 263.875 C-196.30623313 266.32497927 -198.46619862 268.33285625 -200.875 270.375 C-204.23117572 273.24459263 -207.10055463 276.2699199 -209.953125 279.6328125 C-212.56596774 282.65453521 -215.28034291 285.57454911 -218 288.5 C-221.35903431 292.11383617 -224.67395831 295.74411108 -227.875 299.5 C-230.64834158 302.7154685 -233.73575653 305.27979711 -237 308 C-238.74643605 309.87329581 -240.41086532 311.8026594 -242.07421875 313.75 C-247.17391955 319.70827112 -252.45547698 325.45547698 -258 331 C-258.804375 331.99 -259.60875 332.98 -260.4375 334 C-263 337 -263 337 -265.9375 339.4375 C-268.86502851 341.88706467 -271.14308582 344.39192681 -273.56640625 347.3125 C-275.57537059 349.67727546 -277.80657103 351.80657103 -280 354 C-281.00880944 355.15905765 -282.00835863 356.32622042 -283 357.5 C-285.53200676 360.4894431 -288.19379604 363.26224004 -291 366 C-292.16801463 367.16531714 -293.33459255 368.33207547 -294.5 369.5 C-295.09941406 370.098125 -295.69882813 370.69625 -296.31640625 371.3125 C-297.69961053 372.69891357 -299.07032891 374.09777324 -300.4375 375.5 C-302.52893 377.54041951 -304.65199574 379.42230636 -306.875 381.3125 C-310.4039731 384.36115918 -313.45596514 387.63891346 -316.45703125 391.203125 C-317.91249908 392.8981002 -319.32854272 394.51629545 -321 396 C-321.66 396 -322.32 396 -323 396 C-323.25507324 396.58031982 -323.51014648 397.16063965 -323.77294922 397.75854492 C-325.12736466 400.23265718 -326.63412266 401.87721002 -328.6328125 403.86328125 C-329.35726562 404.58580078 -330.08171875 405.30832031 -330.828125 406.05273438 C-331.58609375 406.79845703 -332.3440625 407.54417969 -333.125 408.3125 C-334.22714844 409.41368164 -334.22714844 409.41368164 -335.3515625 410.53710938 C-339.53186168 414.68428999 -343.81717261 418.64767131 -348.27636719 422.49243164 C-350.3004304 424.26277022 -352.19453822 426.12885166 -354.0625 428.0625 C-357.05217057 431.09906736 -360.14819596 433.89894232 -363.4140625 436.6328125 C-364.8567242 437.87648638 -366.21565229 439.21565229 -367.5625 440.5625 C-370.23536645 443.23536645 -373.09707677 445.58089731 -376 448 C-377.67089498 449.6624276 -379.33696308 451.32971147 -381 453 C-382.97867417 454.91918025 -384.98427416 456.80734963 -387 458.6875 C-387.50789063 459.17283203 -388.01578125 459.65816406 -388.5390625 460.15820312 C-390.8584816 462.31407344 -392.78584335 463.91573666 -395.75 465.08203125 C-398.6328642 466.2581998 -398.64257916 467.27061452 -400 470 C-402.13394389 471.82130964 -404.25574997 473.5153253 -406.5 475.1875 C-411.85059483 479.26702748 -416.91546255 483.50435291 -421.81640625 488.125 C-427.49375 493 -427.49375 493 -431 493 C-431.33 493.99 -431.66 494.98 -432 496 C-433.54711914 497.34692383 -433.54711914 497.34692383 -435.53515625 498.70703125 C-436.26283203 499.21169922 -436.99050781 499.71636719 -437.74023438 500.23632812 C-438.50658203 500.75646484 -439.27292969 501.27660156 -440.0625 501.8125 C-441.55422236 502.83862811 -443.04511076 503.86596966 -444.53515625 504.89453125 C-445.27459473 505.40242188 -446.0140332 505.9103125 -446.77587891 506.43359375 C-449.65695219 508.46267895 -452.4452437 510.60224839 -455.22241211 512.77075195 C-457.65301301 514.45157541 -460.14938911 515.28734728 -463 516 C-463 516.66 -463 517.32 -463 518 C-468.82903051 522.46793709 -475.20258718 526.25506032 -481.66796875 529.7265625 C-484.42363448 531.23133139 -487.11314855 532.83399421 -489.8125 534.4375 C-494.77814429 537.34513962 -499.81962154 539.9965372 -504.98828125 542.5234375 C-507.0378673 543.52829292 -509.07671439 544.55528667 -511.10546875 545.6015625 C-516.24987075 548.24874528 -521.21833943 550.54133668 -526.75 552.23046875 C-529.29399301 553.10054969 -531.63946621 554.21035727 -534.0625 555.375 C-569.78602267 571.78318352 -616.72938105 573.44697209 -653.5234375 560.08349609 C-662.28362991 556.82929257 -670.93102602 553.55027775 -678.7890625 548.421875 C-681.26774955 546.82780771 -683.82432811 545.48648451 -686.4375 544.125 C-694.84776932 539.57537691 -702.2249069 533.8371792 -709.3046875 527.4453125 C-711.04387815 525.87325962 -711.04387815 525.87325962 -713.5 524.5625 C-716.78601625 522.50873984 -719.20617057 519.87219599 -721.90234375 517.10546875 C-725.10976137 513.88610544 -728.55976321 510.96572137 -732 508 C-733.77759214 506.46613137 -735.54823208 504.92417575 -737.3125 503.375 C-738.13363281 502.66085937 -738.95476562 501.94671875 -739.80078125 501.2109375 C-742.04042752 498.95935706 -743.41095343 496.73117379 -745 494 C-746.41846465 492.84543575 -747.8387401 491.69292347 -749.2734375 490.55859375 C-752.17485239 487.93944321 -754.45169235 484.83830195 -756.84765625 481.76171875 C-759.10463128 478.86574535 -761.41880191 476.02398241 -763.75 473.1875 C-765.16872597 471.46002252 -766.58548129 469.73092421 -768 468 C-768.74765625 467.10925781 -769.4953125 466.21851563 -770.265625 465.30078125 C-772 463 -772 463 -772 461 C-772.66 461 -773.32 461 -774 461 C-775.25390625 459.57421875 -775.25390625 459.57421875 -776.5625 457.6875 C-777.21412109 456.76517578 -777.21412109 456.76517578 -777.87890625 455.82421875 C-779 454 -779 454 -780 451 C-781.31795293 449.65146167 -782.65326736 448.31979799 -784 447 C-785.16157406 445.46449456 -786.28585328 443.9001998 -787.375 442.3125 C-787.98085938 441.43078125 -788.58671875 440.5490625 -789.2109375 439.640625 C-790.09652344 438.33351563 -790.09652344 438.33351563 -791 437 C-791.50789062 436.25234375 -792.01578125 435.5046875 -792.5390625 434.734375 C-795.84723968 429.8163362 -799.04335893 424.82983103 -802.2109375 419.8203125 C-803.39423736 417.95493586 -804.5868263 416.09541622 -805.7890625 414.2421875 C-809.26600421 408.86594723 -812.44005142 403.41915311 -815.45703125 397.7734375 C-817.60550992 393.91161509 -819.98095883 390.21323583 -822.38671875 386.5078125 C-826.65006396 379.88053011 -826.65006396 379.88053011 -827.9609375 376.58203125 C-829.23370444 373.41925325 -830.89282343 370.62391884 -832.625 367.6875 C-836.75869779 360.5789433 -840.44128896 353.28736215 -844.06054688 345.90673828 C-845.45673497 343.07299892 -846.88755073 340.25686392 -848.3125 337.4375 C-861.63849259 310.75488034 -861.63849259 310.75488034 -866.76171875 297.9375 C-868.3783835 294.10238361 -870.19490959 290.37422491 -872 286.625 C-875.00956322 280.35009544 -877.48370415 274.05327059 -879.72265625 267.45703125 C-881.10980066 263.70283307 -882.75427619 260.15904448 -884.5 256.5625 C-887.41786002 250.52624509 -889.58402877 244.44696909 -891.609375 238.046875 C-893.46356639 232.42794244 -895.86367967 227.02499275 -898.23413086 221.60839844 C-900.18170696 217.12052643 -901.69280704 212.72479383 -903 208 C-904.07256484 204.89700886 -905.22354422 201.82445163 -906.375 198.75 C-906.83918335 197.49582275 -906.83918335 197.49582275 -907.31274414 196.21630859 C-908.63901192 192.6340326 -909.97770391 189.05803447 -911.34765625 185.4921875 C-911.88712891 184.07292969 -911.88712891 184.07292969 -912.4375 182.625 C-912.74558594 181.83351563 -913.05367187 181.04203125 -913.37109375 180.2265625 C-914.07574486 177.73183496 -914.11395001 175.5798283 -914 173 C-910.58449361 173.46261902 -907.17385464 173.9430371 -903.765625 174.45703125 C-901.51264977 174.78188971 -899.25212613 175.06490615 -896.984375 175.26171875 C-890.86577239 175.96700678 -890.86577239 175.96700678 -888.74609375 178.49609375 C-887.6052677 180.94481242 -886.82631718 183.42633227 -886 186 C-885.46163792 187.38406627 -884.91252167 188.76397501 -884.35546875 190.140625 C-881.65232862 196.83284413 -879.06223101 203.49621146 -877.0625 210.4375 C-875.2046848 216.76842391 -872.66996978 222.72441264 -870.06494141 228.77441406 C-867.87788001 233.86640402 -865.83580566 238.98136444 -863.9375 244.1875 C-861.67335989 250.37516883 -859.14196912 256.40617369 -856.46240234 262.42480469 C-854.91429219 265.90225679 -853.42728735 269.38424306 -852.0625 272.9375 C-849.95227798 278.33637972 -847.41866677 283.52931501 -844.92211914 288.75708008 C-843.14122689 292.50529979 -841.45677085 296.23594211 -840 300.125 C-838.08030374 305.14706254 -835.49715619 309.76047935 -832.92407227 314.46875 C-831.03293889 317.960345 -829.33868412 321.40064047 -827.9375 325.125 C-826.04409752 330.15202492 -823.51644079 334.73490289 -820.92578125 339.43359375 C-818.81340295 343.29489543 -816.87857443 347.23811372 -814.9375 351.1875 C-812.32271722 356.48265376 -809.55466784 361.59281865 -806.44921875 366.62109375 C-804.79435055 369.33757551 -803.23038122 372.09341604 -801.6875 374.875 C-801.19636719 375.75929688 -800.70523438 376.64359375 -800.19921875 377.5546875 C-799.1316147 379.73162606 -798.46801955 381.63237169 -798 384 C-797.34 384 -796.68 384 -796 384 C-794.37906626 386.3638617 -793.13667327 388.63098217 -792.140625 391.3203125 C-790.82863047 394.40260101 -789.15002542 396.92951736 -787.25 399.6875 C-784.71176816 403.42180511 -782.26956259 407.15935116 -780 411.0625 C-777.27612566 415.6761083 -774.20423616 419.95952773 -771.015625 424.26171875 C-769.06385581 426.91325015 -767.18161331 429.6022857 -765.3125 432.3125 C-763.38730421 435.09480351 -761.43377722 437.72129611 -759.1875 440.25 C-756.89770941 443.12859389 -756.12468309 445.54561621 -755 449 C-754.01 449.33 -753.02 449.66 -752 450 C-750.37236957 451.94786818 -748.86559384 453.88962635 -747.375 455.9375 C-742.89183734 461.93621405 -738.0732002 467.48896263 -733 473 C-731.82848346 474.32907407 -730.66155394 475.66221028 -729.5 477 C-728.94441406 477.63421875 -728.38882813 478.2684375 -727.81640625 478.921875 C-726.46422612 480.46888538 -725.11896003 482.02194443 -723.77734375 483.578125 C-719.76801997 488.15638454 -716.13379439 491.69155473 -711 495 C-709.94795905 496.15994258 -708.92858233 497.35005918 -707.9375 498.5625 C-705.5275754 501.5079634 -703.32273869 503.10129218 -700 505 C-697.94272566 506.74658393 -695.94372691 508.55062447 -693.9375 510.35546875 C-691.7714362 512.19400274 -689.43748088 513.55274573 -687 515 C-687 515.66 -687 516.32 -687 517 C-686.34 517.226875 -685.68 517.45375 -685 517.6875 C-679.92834751 519.90634796 -675.37813604 523.10330164 -670.74609375 526.1171875 C-662.14197752 531.59264028 -653.62494588 535.31041506 -643.91162109 538.37548828 C-642.23116736 538.92447943 -640.57558599 539.54840845 -638.92578125 540.18359375 C-619.19496387 547.69616438 -595.56189488 546.25341854 -575.19433594 542.41015625 C-573.15755085 542.02944876 -571.11406975 541.6850534 -569.0703125 541.34375 C-556.25917872 539.06862265 -544.18999814 534.71946984 -532.4609375 529.13671875 C-530.06756924 528.03121055 -527.65867948 527.10319596 -525.1875 526.1875 C-520.24550927 524.25470235 -515.74002139 521.66817599 -511.17480469 518.99291992 C-507.8155864 517.0260693 -504.44687775 515.18336006 -500.9375 513.5 C-490.35454505 508.32147689 -480.70184435 501.53162126 -471.15625 494.67578125 C-467.32565789 492 -467.32565789 492 -464 492 C-463.67 491.01 -463.34 490.02 -463 489 C-460.8125 487.16796875 -460.8125 487.16796875 -458 485.1875 C-457.00742188 484.48367188 -456.01484375 483.77984375 -454.9921875 483.0546875 C-452.39200846 481.26918597 -449.76960179 479.53104594 -447.125 477.8125 C-443.64613849 475.52815023 -440.91156585 472.98622139 -438 470 C-436.84781567 469.10601601 -435.67919473 468.2330419 -434.5 467.375 C-426.8934015 461.79970906 -419.80484076 455.50058892 -412.75 449.25 C-410.00802047 446.82172152 -407.17089077 444.5846349 -404.25 442.375 C-400.95001577 439.85347359 -398.56563689 437.27339879 -396 434 C-394 432.66666667 -392 431.33333333 -390 430 C-389.360625 429.195625 -388.72125 428.39125 -388.0625 427.5625 C-386.23291995 425.28938539 -384.92410801 424.1504778 -382.5625 422.5625 C-379.62056772 420.56173673 -377.55729196 418.3957665 -375.3515625 415.578125 C-373.8396441 413.81276363 -372.21042378 412.37797242 -370.4375 410.875 C-366.76813013 407.75360786 -363.37959754 404.42663917 -360 401 C-356.01958384 396.96915942 -351.96577108 393.12033171 -347.66015625 389.43359375 C-343.82760189 386.12407034 -340.50374396 382.43707073 -337.1875 378.625 C-333.99818971 375.00242492 -330.66184602 371.79177058 -326.95703125 368.703125 C-322.64339107 364.94913873 -318.81805205 360.7475829 -315 356.5 C-312.49717188 353.71560371 -309.98553504 350.98555625 -307.3359375 348.33984375 C-304.90164405 345.98295535 -304.90164405 345.98295535 -302.625 343.0625 C-300.26278958 340.15802116 -297.57295564 337.88716246 -294.6953125 335.5078125 C-293.0648486 334.0576764 -291.73488878 332.57699916 -290.375 330.875 C-288 328 -288 328 -285.625 326.125 C-282.73664455 323.7868075 -280.50326433 321.23435283 -278.09375 318.41796875 C-275.56984531 315.50323554 -272.98002408 312.65466265 -270.375 309.8125 C-269.9197998 309.31363281 -269.46459961 308.81476563 -268.99560547 308.30078125 C-266.81602674 305.92449534 -264.60225689 303.60283669 -262.3203125 301.32421875 C-259.8905774 298.95988597 -259.8905774 298.95988597 -257.5 296 C-254.411938 292.2943256 -251.00367551 288.98915288 -247.5703125 285.60546875 C-243.03466337 281.12053774 -238.66347822 276.57999793 -234.515625 271.734375 C-232.45549236 269.37690363 -230.21328264 267.21328264 -228 265 C-226.47188286 263.24368403 -224.97114143 261.46584088 -223.46875 259.6875 C-221.42784721 257.34263296 -219.19767107 255.19767107 -217 253 C-215.99119056 251.84094235 -214.99164137 250.67377958 -214 249.5 C-211.46563842 246.51009495 -208.8062591 243.74099726 -206 241 C-200.95950699 236.05479041 -196.0811311 231.05788497 -191.48046875 225.69921875 C-189.74238328 223.70431854 -187.87060487 221.87060487 -186 220 C-184.84817847 218.69275196 -183.70302153 217.37961841 -182.5625 216.0625 C-179.82542484 212.90612822 -176.95454386 209.95454386 -174 207 C-172.99138896 205.84076971 -171.99186988 204.67358649 -171 203.5 C-168.4668352 200.51035119 -165.8061757 197.739362 -163 195 C-157.1196921 189.24427489 -151.51189651 183.34452925 -146.3359375 176.94140625 C-145.81257813 176.30074219 -145.28921875 175.66007813 -144.75 175 C-144.29109375 174.4225 -143.8321875 173.845 -143.359375 173.25 C-142 172 -142 172 -139 172 C-138.73574219 171.40703125 -138.47148438 170.8140625 -138.19921875 170.203125 C-136.95629575 167.91970946 -135.69598354 166.52573277 -133.8125 164.75 C-130.69528452 161.72239646 -127.8316083 158.56755106 -124.99609375 155.27734375 C-122.64858368 152.59906905 -120.23170061 149.98819713 -117.8125 147.375 C-113.19957558 142.3791309 -108.75159094 137.25876482 -104.34765625 132.07836914 C-101.39004722 128.60423757 -98.38606658 125.18540524 -95.3125 121.8125 C-91.54442122 117.65950995 -87.99241307 113.36505966 -84.46875 109.00390625 C-81.11038424 104.91754031 -77.64779304 100.92335639 -74.16088867 96.94628906 C-71.13401055 93.45782088 -68.5332416 89.87278087 -66 86 C-65.02591217 84.81161285 -64.02916049 83.64102576 -63 82.5 C-61.16880723 80.4137157 -59.6507982 78.46455724 -58.125 76.125 C-56.37395174 73.54992903 -54.65618851 71.46476872 -52.5625 69.1875 C-47.51117031 63.60395997 -43.04390158 57.60763244 -38.50390625 51.609375 C-35.57443598 47.74072924 -32.59614968 43.91303107 -29.60180664 40.09448242 C-23.93146294 32.86284065 -18.43783086 25.55550079 -13.18359375 18.015625 C-11.62891023 15.86854866 -10.07641637 13.86467523 -8.3671875 11.8515625 C-6.52431083 9.63159556 -5.04734024 7.64322267 -3.6875 5.125 C-3.130625 4.09375 -2.57375 3.0625 -2 2 C-1.34 2 -0.68 2 0 2 C0 1.34 0 0.68 0 0 Z " fill="#8E30C1" transform="translate(1505,491)"/>
<path d="M0 0 C0.66 0 1.32 0 2 0 C2.03440186 0.58974609 2.06880371 1.17949219 2.10424805 1.78710938 C3.56271035 25.46620593 7.28289132 48.72887875 11.74365234 72.0144043 C12.62805735 76.67092356 13.29521053 81.29179696 13.78076172 86.0065918 C14.04714906 88.42869941 14.45355134 90.79975332 14.9375 93.1875 C15.16759766 94.35345703 15.16759766 94.35345703 15.40234375 95.54296875 C15.97905694 98.07428013 15.97905694 98.07428013 16.94311523 100.76538086 C18.72148706 106.20812707 19.87299213 111.79188357 21.125 117.375 C21.40214844 118.56867188 21.67929687 119.76234375 21.96484375 120.9921875 C23.34310021 127.12984188 24.35911209 132.7077317 24 139 C8.79147224 133.47927788 -2.93402826 118.26353334 -9.92285156 104.13427734 C-21.46046659 79.1924771 -22.37938639 48.77268342 -13 23 C-9.4889916 14.83346806 -5.49369405 7.01418928 0 0 Z " fill="#151315" transform="translate(524,371)"/>
<path d="M0 0 C0.33 0 0.66 0 1 0 C1 24.75 1 49.5 1 75 C-20.45 75 -41.9 75 -64 75 C-61.9324008 71.55400133 -60.53101948 69.27782705 -57.890625 66.51171875 C-57.30450439 65.89216309 -56.71838379 65.27260742 -56.11450195 64.63427734 C-55.49921631 63.99184082 -54.88393066 63.3494043 -54.25 62.6875 C-52.9770455 61.3406174 -51.7048995 59.99297019 -50.43359375 58.64453125 C-49.83144043 58.00725098 -49.22928711 57.3699707 -48.60888672 56.71337891 C-44.75345095 52.60754457 -41.11748086 48.32809641 -37.4921875 44.01953125 C-36.55743288 42.90873531 -35.62253277 41.79806181 -34.6875 40.6875 C-34.21691162 40.12804687 -33.74632324 39.56859375 -33.26147461 38.9921875 C-30.20851189 35.37973221 -27.07770218 31.85663114 -23.875 28.375 C-19.02526952 23.08925274 -14.50945202 17.57587649 -10 12 C-8.17444101 9.76435168 -6.33935082 7.53680822 -4.5 5.3125 C-3.24703125 3.79076172 -3.24703125 3.79076172 -1.96875 2.23828125 C-1.3190625 1.49964844 -0.669375 0.76101563 0 0 Z " fill="#131314" transform="translate(1458,588)"/>
<path d="M0 0 C0.33 0.99 0.66 1.98 1 3 C-1.31 5.31 -3.62 7.62 -6 10 C-6 6.41087588 -5.33563446 5.89142971 -3 3.3125 C-2.443125 2.68988281 -1.88625 2.06726563 -1.3125 1.42578125 C-0.879375 0.95527344 -0.44625 0.48476563 0 0 Z " fill="#1F1829" transform="translate(1458,588)"/>
<path d="M0 0 C0.66 0 1.32 0 2 0 C2 2.64 2 5.28 2 8 C0.23537317 4.91190305 0 3.76687864 0 0 Z " fill="#3F1B4C" transform="translate(524,371)"/>
</svg>
